<?xml version="1.0" encoding="UTF-8"?>
<!DOCTYPE svg PUBLIC "-//W3C//DTD SVG 1.1//EN" "http://www.w3.org/Graphics/SVG/1.1/DTD/svg11.dtd">
<!-- Creator: CorelDRAW 2021.5 (Evaluation Version) -->
<svg xmlns="http://www.w3.org/2000/svg" xml:space="preserve" width="200mm" height="200mm" version="1.1" style="shape-rendering:geometricPrecision; text-rendering:geometricPrecision; image-rendering:optimizeQuality; fill-rule:evenodd; clip-rule:evenodd"
viewBox="0 0 20000 20000"
 xmlns:xlink="http://www.w3.org/1999/xlink"
 xmlns:xodm="http://www.corel.com/coreldraw/odm/2003">
 <defs>
  <style type="text/css">
   <![CDATA[
    .fil0 {fill:none}
    .fil4 {fill:black}
    .fil7 {fill:#95D9EF}
    .fil3 {fill:#F2DFE7}
    .fil2 {fill:#F9F3F1}
    .fil1 {fill:#FE93BB}
    .fil6 {fill:#FFE07D}
    .fil5 {fill:#FFE4C1}
   ]]>
  </style>
   <clipPath id="id0">
    <path d="M3377.33 14707.05c682.68,0 2826.17,113.75 3288.71,-131.57 724.18,-384.09 879.69,-1339.9 2080.65,-1339.95 1095.56,-0.04 2352.04,-56.63 3427.66,3.98 1112,62.66 1236.68,1438.23 180.02,1745.71 361.53,72.01 3879.76,25.58 4557.33,25.58l0 -6812.94c0,-1476.1 143.65,-1468.62 -1702.07,-1442.44 -7877.07,111.34 -4292.84,252.97 -10524.72,-4.18 -730.47,-30.18 -1312.93,-58.52 -1309.09,672.77l1.51 7283.04z"/>
   </clipPath>
 </defs>
 <g id="Layer_x0020_1">
  <metadata id="CorelCorpID_0Corel-Layer"/>
  <rect class="fil0" width="20000" height="20000"/>
  <path class="fil1" d="M3377.33 14707.05c682.68,0 2826.17,113.75 3288.71,-131.57 724.18,-384.09 879.69,-1339.9 2080.65,-1339.95 1095.56,-0.04 2352.04,-56.63 3427.66,3.98 1112,62.66 1236.68,1438.23 180.02,1745.71 361.53,72.01 3879.76,25.58 4557.33,25.58l0 -6812.94c0,-1476.1 143.65,-1468.62 -1702.07,-1442.44 -7877.07,111.34 -4292.84,252.97 -10524.72,-4.18 -730.47,-30.18 -1312.93,-58.52 -1309.09,672.77l1.51 7283.04z"/>
  <g id="_1974955510432">
  </g>
  <path class="fil2" d="M3377.33 14707.05c682.68,0 2826.17,113.75 3288.71,-131.57 724.18,-384.09 879.69,-1339.9 2080.65,-1339.95 1095.56,-0.04 2352.04,-56.63 3427.66,3.98 1112,62.66 1236.68,1438.23 180.02,1745.71 361.53,72.01 3879.76,25.58 4557.33,25.58l0 -6812.94c0,-1476.1 143.65,-1468.62 -1702.07,-1442.44 -7877.07,111.34 -4292.84,252.97 -10524.72,-4.18 -730.47,-30.18 -1312.93,-58.52 -1309.09,672.77l1.51 7283.04z"/>
  <g style="clip-path:url(#id0)">
   <g id="_1974955510096">
    <rect class="fil3" x="12501.99" y="5495.06" width="4636.3" height="10461.39"/>
   </g>
  </g>
  <path class="fil0" d="M3377.33 14707.05c682.68,0 2826.17,113.75 3288.71,-131.57 724.18,-384.09 879.69,-1339.9 2080.65,-1339.95 1095.56,-0.04 2352.04,-56.63 3427.66,3.98 1112,62.66 1236.68,1438.23 180.02,1745.71 361.53,72.01 3879.76,25.58 4557.33,25.58l0 -6812.94c0,-1476.1 143.65,-1468.62 -1702.07,-1442.44 -7877.07,111.34 -4292.84,252.97 -10524.72,-4.18 -730.47,-30.18 -1312.93,-58.52 -1309.09,672.77l1.51 7283.04z"/>
  <g id="_1974955509904">
   <path class="fil4" d="M3377.33 14707.05c682.68,0 2826.17,113.75 3288.71,-131.57 724.18,-384.09 879.69,-1339.9 2080.65,-1339.95 1095.56,-0.04 2352.04,-56.63 3427.66,3.98 1112,62.66 1236.68,1438.23 180.02,1745.71 361.53,72.01 3879.76,25.58 4557.33,25.58l0 -6812.94c0,-1476.1 143.65,-1468.62 -1702.07,-1442.44 -7877.07,111.34 -4292.84,252.97 -10524.72,-4.18 -730.47,-30.18 -1312.93,-58.52 -1309.09,672.77l1.51 7283.04zm551.31 351.78c-196.49,-4.57 -364.27,-8.49 -551.31,-8.49l0 -1.34c-188.85,0 -341.95,-153.1 -341.95,-341.95l-1.51 -7281.68 0 -0.02c0,-0.02 0,-0.04 0,-0.07l0 -1.27 0.01 0c-4.03,-868.73 502.24,-1022.74 1216.77,-1026.49 144.57,-0.75 286.7,5.12 435,11.25l12.67 0.52 260.93 10.77c2378.22,98.17 3239.86,133.74 3925.82,134.01 386.78,0.14 731.85,-11.09 1272.91,-28.69 855.83,-27.85 2203.21,-71.71 5047.63,-111.91l35.25 -0.5c968.48,-13.77 1427.93,-20.29 1722.09,229 299.76,254.04 297.14,600.63 292.14,1259.99 -0.04,6.36 -0.1,11.17 -0.1,295.9l0 6812.94c0,189.59 -153.7,343.29 -343.29,343.29 -316.6,0 -501.8,1.42 -736.41,3.2 -1281.41,9.75 -3573.22,27.21 -3887.97,-35.48l0.21 -1.08c-121.13,-24.24 -224.94,-113.45 -261.7,-240.3 -52.58,-181.44 51.89,-371.17 233.33,-423.75 229.36,-66.74 373.38,-200.1 438.11,-351.27 35.46,-82.81 48.14,-171.79 38.76,-257.99 -9.13,-83.94 -39.72,-165.28 -91.02,-235.28 -92.11,-125.7 -255.6,-217.51 -489.43,-230.68 -725.26,-40.87 -1529.73,-28.12 -2310.8,-15.74 -373.27,5.9 -741.28,11.75 -1098.09,11.76 -610.64,0.02 -899.75,329.87 -1183.28,653.36 -211.12,240.88 -419.91,479.1 -737.79,647.7 -447.51,237.34 -1949.59,202.35 -2896.98,180.29z"/>
  </g>
  <g id="_1974955511680">
   <path class="fil5" d="M3377.33 14707.05l-2059.58 0.57 0 2942.24 4413.38 0c634.75,0 832.49,-12.37 1319.47,151.66 2758.62,929.16 3304.86,995.46 6101.74,208.14l4612.96 -1271.55c423.78,-107.65 723.39,-209.24 863.65,-607.49 141.51,-401.8 -5.98,-804.52 -356.76,-1018.15 -196.84,-119.9 -315.52,-111.97 -624.82,-110.75 -243.98,0.97 -493.82,-13.8 -735.67,9.08 -677.57,0 -4195.8,46.43 -4557.33,-25.58 1056.66,-307.48 931.98,-1683.05 -180.02,-1745.71 -1075.62,-60.61 -2332.1,-4.02 -3427.66,-3.98 -1200.96,0.05 -1356.47,955.86 -2080.65,1339.95 -462.54,245.32 -2606.03,131.57 -3288.71,131.57z"/>
   <path id="_1" class="fil4" d="M12354.37 14985.22c1056.66,-307.48 931.98,-1683.05 -180.02,-1745.71 -1075.62,-60.61 -2332.1,-4.02 -3427.66,-3.98 -1200.96,0.05 -1356.47,955.86 -2080.65,1339.95 -462.54,245.32 -2606.03,131.57 -3288.71,131.57l-2059.58 0.57 0 2942.24 4413.38 0c634.75,0 832.49,-12.37 1319.47,151.66 2758.62,929.16 3304.86,995.46 6101.74,208.14l4612.96 -1271.55c423.78,-107.65 723.39,-209.24 863.65,-607.49 141.51,-401.8 -5.98,-804.52 -356.76,-1018.15 -196.84,-119.9 -315.52,-111.97 -624.82,-110.75 -243.98,0.97 -493.82,-13.8 -735.67,9.08 -677.57,0 -4195.8,46.43 -4557.33,-25.58zm-11036.62 -619.55l2059.58 -0.57 0 -1.34c85.31,0 306.2,5.15 564.71,11.17 878.51,20.45 2271.4,52.9 2564.42,-102.51 206.81,-109.69 373.48,-299.86 542.01,-492.14 384.78,-439.02 777.13,-886.67 1698.22,-886.7 346.05,0 714.1,-5.86 1087.37,-11.76 799.62,-12.67 1623.21,-25.72 2359.06,15.74 460.49,25.94 798.9,229.22 1004.37,509.6 123.88,169.05 197.72,365.32 219.76,567.84 21.81,200.27 -7.55,406.71 -89.72,598.61 -15.51,36.22 -32.87,71.89 -52.07,106.87 833.39,8.62 2076.96,-0.84 2897.15,-7.09 423.6,-3.21 694.86,-5.79 737.05,-5.88 177.41,-14.79 351.71,-12.19 525.14,-9.61 71.89,1.07 143.66,2.14 211.23,1.87l50.97 -0.25c340.32,-1.82 485.59,-2.59 753.54,160.62 245.36,149.43 420.13,367.91 508.89,621.25 87.23,248.95 89.73,527.7 -7.3,803.21 -99.59,282.8 -258.74,462.09 -470.33,591.07 -186.43,113.64 -393.13,174.33 -632.02,235l-0.2 -0.78 -4591.64 1265.68c-4.32,1.39 -8.67,2.73 -13.07,3.97 -1432.95,403.37 -2294.53,587.87 -3171.16,551.68 -875.22,-36.12 -1722.51,-290.53 -3131.73,-765.18 -307.03,-103.42 -488.76,-127.63 -779.59,-132.99 -47.32,0.06 -174.6,0.1 -431.26,0.1l-4413.38 0c-189.59,0 -343.29,-153.7 -343.29,-343.29l0 -2942.24 1.34 0c0,-188.85 153.1,-341.95 341.95,-341.95zm4537.73 3626.04c-321.96,0.4 159.78,0.86 295.47,1.15 -86.71,-1.44 -183.17,-1.31 -295.47,-1.15z"/>
  </g>
  <path class="fil6" d="M7497.04 7069.69c-675.06,-0.94 -1407.02,159.44 -1470.58,-644.73l-884.33 0 0 3869.82 -73 0 2500.91 0 -73 0 0 -3225.09z"/>
  <g id="_1974955514032">
   <path class="fil4" d="M6026.46 6763.52c63.56,733.81 795.52,587.46 1470.58,588.33l1778.46 0.12c96.21,166.58 287.82,392.28 415.73,562.73l453.28 589.64c31.85,-28.39 24,-22.01 58.07,-63l158.78 -211.43c88.49,-118.1 140.7,-187.58 220.67,-294.2 139.85,-186.46 331.08,-409.85 431.49,-583.74 643.4,0 1283.55,-2.82 1926.13,-2.82 641.73,0 1257.94,105.36 1319.85,-585.63 33.45,-759.78 4.17,-1586.56 4.17,-2353.8 0,-779.59 17.79,-1579.16 2.19,-2356 -15.62,-777.76 -949.44,-586.26 -1767.54,-586.26 -1856.18,0 -4075.06,-38.59 -5886.71,-2.19 -341.62,6.86 -581.58,246.83 -588.45,588.45 -30.99,1542.96 -14.61,3163.57 3.3,4709.8zm1185.56 936.04c-745.26,22.27 -1445.26,43.21 -1527.51,-906.54l1.24 -0.11c-0.75,-8.81 -1.17,-17.72 -1.24,-26.71 -8.95,-772.6 -17.52,-1564.16 -19.99,-2358.81 -2.47,-794.77 1.18,-1588.23 16.69,-2360.37 5.3,-263.85 103.32,-491.17 267.94,-655.77 164.61,-164.61 391.91,-262.64 655.76,-267.93 1209.06,-24.28 2600.08,-15.22 3944,-6.48 567.76,3.69 1125.08,7.33 1949.41,7.33 159.55,0 281.61,-4.66 402.28,-9.26 91.1,-3.47 181.55,-6.93 283.97,-8.98 762.41,-15.31 1405.87,76.26 1423.24,941.09 10.24,510.06 6.15,1030.58 2.09,1548.86 -1.46,187.79 -2.94,374.58 -2.94,813.84 0,352.32 2.26,543.59 4.52,736.51 6.46,549.44 13.03,1108.19 -10.03,1632.04l-0.41 -0.02c-0.22,4.91 -0.51,9.83 -0.94,14.77 -83.11,927.62 -716.98,915.19 -1440.47,901.03 -40.7,-0.79 -81.76,-1.61 -219.98,-1.61 -918.2,0 -946.55,0.04 -962.45,0.07 -473.87,1.03 -609.98,2.08 -778.87,2.52 -65.3,91.91 -138.69,185.28 -210.41,276.51 -58.43,74.35 -116.22,147.86 -132.33,169.34l-76.45 101.9c-44.46,59.25 -86.69,115.51 -144.22,192.3l-158.78 211.43 -0.08 -0.06c-3.42,4.55 -6.97,9.04 -10.65,13.47 -2.94,3.54 -4.88,5.88 -6.12,7.41 -0.63,0.85 -1.27,1.69 -1.91,2.54 0.66,-0.58 3,-3.08 -5.95,7.98l-0.17 -0.14c-0.39,0.49 -0.77,0.99 -1.17,1.48 -33.05,40.7 -35.5,43.73 -77.62,81.27l-0.43 -0.48c-5.9,5.24 -12,10.33 -18.34,15.23 -149.59,115.53 -364.53,87.91 -480.06,-61.68l-453.28 -589.64 0.25 -0.2c-0.98,-1.27 -1.97,-2.53 -2.94,-3.82 -10.87,-14.49 -65.03,-83.45 -120.88,-154.57 -69.28,-88.22 -141.93,-180.73 -206.51,-271.39l-1593.24 -0.11c-88.68,-0.11 -187.37,2.84 -285.02,5.76z"/>
   <path id="_1_0" class="fil2" d="M6026.46 6763.52c63.56,733.81 795.52,587.46 1470.58,588.33l1778.46 0.12c96.21,166.58 287.82,392.28 415.73,562.73l453.28 589.64c31.85,-28.39 24,-22.01 58.07,-63l158.78 -211.43c88.49,-118.1 140.7,-187.58 220.67,-294.2 139.85,-186.46 331.08,-409.85 431.49,-583.74 643.4,0 1283.55,-2.82 1926.13,-2.82 641.73,0 1257.94,105.36 1319.85,-585.63 33.45,-759.78 4.17,-1586.56 4.17,-2353.8 0,-779.59 17.79,-1579.16 2.19,-2356 -15.62,-777.76 -949.44,-586.26 -1767.54,-586.26 -1856.18,0 -4075.06,-38.59 -5886.71,-2.19 -341.62,6.86 -581.58,246.83 -588.45,588.45 -30.99,1542.96 -14.61,3163.57 3.3,4709.8z"/>
  </g>
  <polygon class="fil7" points="7202.26,3232.82 13086.77,3232.82 13086.77,2644.36 7202.26,2644.36 "/>
  <polygon class="fil7" points="7202.26,4703.94 13086.77,4703.94 13086.77,4115.49 7202.26,4115.49 "/>
  <polygon class="fil7" points="7202.26,6175.07 11321.41,6175.07 11321.41,5586.62 7202.26,5586.62 "/>
 </g>
</svg>
