<?xml version="1.0" encoding="UTF-8"?>
<!DOCTYPE svg PUBLIC "-//W3C//DTD SVG 1.1//EN" "http://www.w3.org/Graphics/SVG/1.1/DTD/svg11.dtd">
<!-- Creator: CorelDRAW 2021.5 (Evaluation Version) -->
<svg xmlns="http://www.w3.org/2000/svg" xml:space="preserve" width="200mm" height="200mm" version="1.1" style="shape-rendering:geometricPrecision; text-rendering:geometricPrecision; image-rendering:optimizeQuality; fill-rule:evenodd; clip-rule:evenodd"
viewBox="0 0 19943.5 19943.5"
 xmlns:xlink="http://www.w3.org/1999/xlink"
 xmlns:xodm="http://www.corel.com/coreldraw/odm/2003">
 <defs>
  <style type="text/css">
   <![CDATA[
    .fil0 {fill:none}
    .fil3 {fill:black}
    .fil6 {fill:#8AC9FE}
    .fil7 {fill:#95D9EF}
    .fil2 {fill:#FE76A8}
    .fil1 {fill:#FE93BB}
    .fil5 {fill:#FFE07D}
    .fil4 {fill:#FFE4C1}
   ]]>
  </style>
    <clipPath id="id0">
     <path d="M3367.79 14665.5c680.75,0 2818.19,113.43 3279.42,-131.2 722.13,-383 877.2,-1336.11 2074.77,-1336.16 1092.47,-0.04 2345.4,-56.47 3417.98,3.97 1108.86,62.48 1233.19,1434.17 179.51,1740.78 360.51,71.81 3868.8,25.51 4544.46,25.51l0 -6793.69c0,-1471.93 143.24,-1464.47 -1697.26,-1438.37 -7854.82,111.03 -4280.71,252.26 -10494.99,-4.17 -728.41,-30.09 -1309.22,-58.35 -1305.39,670.87l1.51 7262.47z"/>
    </clipPath>
 </defs>
 <g id="Layer_x0020_1">
  <metadata id="CorelCorpID_0Corel-Layer"/>
  <rect class="fil0" x="-0" width="19943.5" height="19943.5"/>
  <g id="_1792885945904">
   <path class="fil1" d="M3367.79 14665.5c680.75,0 2818.19,113.43 3279.42,-131.2 722.13,-383 877.2,-1336.11 2074.77,-1336.16 1092.47,-0.04 2345.4,-56.47 3417.98,3.97 1108.86,62.48 1233.19,1434.17 179.51,1740.78 360.51,71.81 3868.8,25.51 4544.46,25.51l0 -6793.69c0,-1471.93 143.24,-1464.47 -1697.26,-1438.37 -7854.82,111.03 -4280.71,252.26 -10494.99,-4.17 -728.41,-30.09 -1309.22,-58.35 -1305.39,670.87l1.51 7262.47z"/>
   <g style="clip-path:url(#id0)">
    <g>
     <rect class="fil2" x="12466.67" y="5479.54" width="4623.2" height="10431.84"/>
    </g>
   </g>
   <g>
    <path class="fil3" d="M3367.79 14665.5c680.75,0 2818.19,113.43 3279.42,-131.2 722.13,-383 877.2,-1336.11 2074.77,-1336.16 1092.47,-0.04 2345.4,-56.47 3417.98,3.97 1108.86,62.48 1233.19,1434.17 179.51,1740.78 360.51,71.81 3868.8,25.51 4544.46,25.51l0 -6793.69c0,-1471.93 143.24,-1464.47 -1697.26,-1438.37 -7854.82,111.03 -4280.71,252.26 -10494.99,-4.17 -728.41,-30.09 -1309.22,-58.35 -1305.39,670.87l1.51 7262.47zm549.75 350.79c-195.93,-4.56 -363.24,-8.47 -549.75,-8.47l0 -1.34c-188.32,0 -340.98,-152.67 -340.98,-340.98l-1.51 -7261.11 0 -0.02c0,-0.02 0,-0.04 0,-0.07l0 -1.27 0.01 0c-4.02,-866.28 500.82,-1019.85 1213.33,-1023.59 144.16,-0.75 285.89,5.11 433.77,11.22l12.63 0.52 260.19 10.74c2371.5,97.89 3230.71,133.36 3914.73,133.63 385.69,0.14 729.78,-11.06 1269.31,-28.61 853.41,-27.77 2196.99,-71.51 5033.37,-111.59l35.15 -0.5c965.74,-13.73 1423.9,-20.23 1717.23,228.35 298.91,253.32 296.3,598.93 291.31,1256.43 -0.04,6.34 -0.1,11.14 -0.1,295.06l0 6793.69c0,189.05 -153.27,342.32 -342.32,342.32 -315.71,0 -500.38,1.42 -734.33,3.19 -1277.79,9.72 -3563.13,27.13 -3876.99,-35.38l0.21 -1.08c-120.79,-24.17 -224.3,-113.13 -260.96,-239.62 -52.43,-180.93 51.74,-370.12 232.67,-422.55 228.71,-66.55 372.33,-199.53 436.87,-350.28 35.36,-82.58 48,-171.3 38.65,-257.26 -9.1,-83.7 -39.61,-164.81 -90.76,-234.62 -91.85,-125.34 -254.88,-216.9 -488.05,-230.03 -723.21,-40.75 -1525.41,-28.04 -2304.27,-15.7 -372.22,5.88 -739.19,11.72 -1094.99,11.73 -608.91,0.02 -897.21,328.94 -1179.94,651.51 -210.52,240.2 -418.72,477.75 -735.71,645.87 -446.25,236.67 -1944.08,201.78 -2888.8,179.78z"/>
   </g>
   <g>
    <path class="fil4" d="M3367.79 14665.5l-2053.76 0.57 0 2933.93 4400.91 0c632.96,0 830.14,-12.34 1315.74,151.23 2750.83,926.54 3295.52,992.65 6084.5,207.55l4599.93 -1267.96c422.58,-107.35 721.35,-208.65 861.21,-605.77 141.11,-400.66 -5.96,-802.25 -355.75,-1015.27 -196.28,-119.56 -314.63,-111.65 -623.05,-110.44 -243.29,0.97 -492.42,-13.76 -733.59,9.05 -675.66,0 -4183.95,46.3 -4544.46,-25.51 1053.67,-306.61 929.35,-1678.3 -179.51,-1740.78 -1072.58,-60.44 -2325.51,-4.01 -3417.98,-3.97 -1197.57,0.05 -1352.64,953.16 -2074.77,1336.16 -461.23,244.63 -2598.67,131.2 -3279.42,131.2z"/>
    <path id="_1" class="fil3" d="M12319.47 14942.89c1053.67,-306.61 929.35,-1678.3 -179.51,-1740.78 -1072.58,-60.44 -2325.51,-4.01 -3417.98,-3.97 -1197.57,0.05 -1352.64,953.16 -2074.77,1336.16 -461.23,244.63 -2598.67,131.2 -3279.42,131.2l-2053.76 0.57 0 2933.93 4400.91 0c632.96,0 830.14,-12.34 1315.74,151.23 2750.83,926.54 3295.52,992.65 6084.5,207.55l4599.93 -1267.96c422.58,-107.35 721.35,-208.65 861.21,-605.77 141.11,-400.66 -5.96,-802.25 -355.75,-1015.27 -196.28,-119.56 -314.63,-111.65 -623.05,-110.44 -243.29,0.97 -492.42,-13.76 -733.59,9.05 -675.66,0 -4183.95,46.3 -4544.46,-25.51zm-11005.44 -617.8l2053.76 -0.57 0 -1.34c85.07,0 305.33,5.14 563.11,11.14 876.03,20.39 2264.98,52.75 2557.18,-102.22 206.23,-109.38 372.42,-299.01 540.48,-490.75 383.69,-437.78 774.93,-884.17 1693.42,-884.2 345.07,0 712.08,-5.84 1084.3,-11.73 797.36,-12.63 1618.62,-25.65 2352.4,15.7 459.19,25.87 796.64,228.57 1001.53,508.16 123.53,168.57 197.16,364.29 219.14,566.24 21.75,199.7 -7.53,405.56 -89.47,596.92 -15.47,36.12 -32.78,71.69 -51.92,106.57 831.04,8.6 2071.09,-0.84 2888.97,-7.07 422.4,-3.2 692.9,-5.77 734.97,-5.86 176.91,-14.75 350.72,-12.16 523.66,-9.58 71.69,1.07 143.25,2.13 210.63,1.86l50.83 -0.25c339.36,-1.81 484.22,-2.58 751.41,160.17 244.67,149.01 418.94,366.87 507.45,619.49 86.98,248.25 89.48,526.21 -7.28,800.94 -99.31,282 -258.01,460.78 -469,589.4 -185.9,113.32 -392.02,173.84 -630.23,234.34l-0.2 -0.78 -4578.67 1262.1c-4.31,1.39 -8.65,2.72 -13.03,3.96 -1428.9,402.23 -2288.05,586.21 -3162.2,550.12 -872.75,-36.02 -1717.64,-289.71 -3122.88,-763.02 -306.16,-103.13 -487.38,-127.27 -777.39,-132.61 -47.19,0.06 -174.11,0.1 -430.04,0.1l-4400.91 0c-189.05,0 -342.32,-153.27 -342.32,-342.32l0 -2933.93 1.34 0c0,-188.32 152.67,-340.98 340.98,-340.98zm4524.91 3615.79c-321.05,0.4 159.33,0.86 294.64,1.15 -86.47,-1.44 -182.65,-1.31 -294.64,-1.15z"/>
   </g>
   <path class="fil5" d="M7475.86 7049.72c-673.15,-0.94 -1403.05,158.99 -1466.43,-642.91l-881.83 0 0 3858.89 -72.79 0 2493.84 0 -72.79 0 0 -3215.98z"/>
   <g>
    <path class="fil3" d="M6009.44 6744.41c63.38,731.74 793.27,585.8 1466.43,586.67l1773.44 0.12c95.94,166.11 287.01,391.17 414.56,561.14l452 587.97c31.76,-28.31 23.93,-21.95 57.91,-62.82l158.33 -210.83c88.24,-117.77 140.3,-187.05 220.05,-293.37 139.45,-185.93 330.14,-408.69 430.27,-582.09 641.58,0 1279.92,-2.81 1920.69,-2.81 639.92,0 1254.39,105.06 1316.12,-583.98 33.36,-757.63 4.16,-1582.08 4.16,-2347.15 0,-777.39 17.74,-1574.7 2.18,-2349.34 -15.58,-775.56 -946.76,-584.6 -1762.55,-584.6 -1850.94,0 -4063.55,-38.48 -5870.08,-2.18 -340.65,6.84 -579.94,246.13 -586.79,586.79 -30.9,1538.6 -14.57,3154.63 3.29,4696.49zm1182.21 933.4c-743.15,22.21 -1441.18,43.09 -1523.19,-903.98l1.24 -0.11c-0.75,-8.79 -1.17,-17.67 -1.24,-26.63 -8.92,-770.42 -17.47,-1559.74 -19.93,-2352.15 -2.46,-792.52 1.18,-1583.74 16.64,-2353.7 5.29,-263.1 103.03,-489.78 267.18,-653.92 164.14,-164.14 390.8,-261.9 653.91,-267.17 1205.64,-24.21 2592.73,-15.18 3932.86,-6.46 566.16,3.68 1121.9,7.31 1943.9,7.31 159.1,0 280.81,-4.65 401.14,-9.23 90.84,-3.46 181.04,-6.91 283.17,-8.95 760.26,-15.27 1401.9,76.04 1419.22,938.43 10.21,508.62 6.13,1027.67 2.08,1544.48 -1.46,187.26 -2.93,373.52 -2.93,811.54 0,351.32 2.25,542.05 4.51,734.43 6.44,547.89 12.99,1105.06 -10,1627.43l-0.41 -0.02c-0.22,4.9 -0.51,9.8 -0.94,14.73 -82.88,925 -714.95,912.6 -1436.4,898.48 -40.59,-0.79 -81.53,-1.61 -219.36,-1.61 -915.61,0 -943.88,0.04 -959.73,0.07 -472.53,1.03 -608.26,2.07 -776.67,2.51 -65.12,91.65 -138.3,184.76 -209.82,275.73 -58.26,74.14 -115.89,147.44 -131.96,168.86l-76.23 101.61c-44.33,59.08 -86.45,115.18 -143.81,191.76l-158.33 210.83 -0.08 -0.06c-3.41,4.54 -6.95,9.01 -10.62,13.43 -2.93,3.53 -4.87,5.86 -6.1,7.39 -0.63,0.85 -1.27,1.69 -1.9,2.53 0.66,-0.58 2.99,-3.07 -5.93,7.96l-0.17 -0.14c-0.39,0.49 -0.77,0.99 -1.17,1.48 -32.96,40.59 -35.4,43.61 -77.4,81.04l-0.43 -0.48c-5.88,5.23 -11.97,10.3 -18.29,15.19 -149.17,115.2 -363.5,87.66 -478.7,-61.51l-452 -587.97 0.25 -0.2c-0.98,-1.27 -1.96,-2.52 -2.93,-3.81 -10.84,-14.45 -64.85,-83.21 -120.54,-154.13 -69.08,-87.97 -141.53,-180.22 -205.93,-270.62l-1588.74 -0.11c-88.43,-0.11 -186.84,2.83 -284.21,5.74z"/>
    <path id="_1_0" class="fil6" d="M6009.44 6744.41c63.38,731.74 793.27,585.8 1466.43,586.67l1773.44 0.12c95.94,166.11 287.01,391.17 414.56,561.14l452 587.97c31.76,-28.31 23.93,-21.95 57.91,-62.82l158.33 -210.83c88.24,-117.77 140.3,-187.05 220.05,-293.37 139.45,-185.93 330.14,-408.69 430.27,-582.09 641.58,0 1279.92,-2.81 1920.69,-2.81 639.92,0 1254.39,105.06 1316.12,-583.98 33.36,-757.63 4.16,-1582.08 4.16,-2347.15 0,-777.39 17.74,-1574.7 2.18,-2349.34 -15.58,-775.56 -946.76,-584.6 -1762.55,-584.6 -1850.94,0 -4063.55,-38.48 -5870.08,-2.18 -340.65,6.84 -579.94,246.13 -586.79,586.79 -30.9,1538.6 -14.57,3154.63 3.29,4696.49z"/>
   </g>
   <polygon class="fil7" points="7181.91,3223.69 13049.8,3223.69 13049.8,2636.89 7181.91,2636.89 "/>
   <polygon class="fil7" points="7181.91,4690.65 13049.8,4690.65 13049.8,4103.86 7181.91,4103.86 "/>
   <polygon class="fil7" points="7181.91,6157.63 11289.43,6157.63 11289.43,5570.84 7181.91,5570.84 "/>
  </g>
 </g>
</svg>
