<?xml version="1.0" encoding="UTF-8"?>
<!DOCTYPE svg PUBLIC "-//W3C//DTD SVG 1.1//EN" "http://www.w3.org/Graphics/SVG/1.1/DTD/svg11.dtd">
<!-- Creator: CorelDRAW 2021.5 (Evaluation Version) -->
<svg xmlns="http://www.w3.org/2000/svg" xml:space="preserve" width="200mm" height="200mm" version="1.1" style="shape-rendering:geometricPrecision; text-rendering:geometricPrecision; image-rendering:optimizeQuality; fill-rule:evenodd; clip-rule:evenodd"
viewBox="0 0 19957.31 19957.31"
 xmlns:xlink="http://www.w3.org/1999/xlink"
 xmlns:xodm="http://www.corel.com/coreldraw/odm/2003">
 <defs>
  <style type="text/css">
   <![CDATA[
    .str1 {stroke:black;stroke-width:19.96;stroke-miterlimit:22.9256}
    .str0 {stroke:black;stroke-width:70.41;stroke-linejoin:round;stroke-miterlimit:22.9256}
    .fil0 {fill:none}
    .fil1 {fill:black}
    .fil8 {fill:#01B46A}
    .fil16 {fill:#0AA260}
    .fil18 {fill:#0D9C5D}
    .fil10 {fill:#109659}
    .fil12 {fill:#188550}
    .fil19 {fill:#2B2A29}
    .fil14 {fill:#79480E}
    .fil2 {fill:#8AC9FE}
    .fil15 {fill:#997194}
    .fil5 {fill:#9A5723}
    .fil17 {fill:#B5B5B5}
    .fil13 {fill:#CCCCCC}
    .fil11 {fill:#FACABE}
    .fil7 {fill:#FCD1C4}
    .fil6 {fill:#FCDBCE}
    .fil3 {fill:#FE93BB}
    .fil20 {fill:#FEC165}
    .fil9 {fill:#FED4C3}
    .fil4 {fill:#FEFEFE}
   ]]>
  </style>
 </defs>
 <g id="Layer_x0020_1">
  <metadata id="CorelCorpID_0Corel-Layer"/>
  <rect class="fil0" y="-0.01" width="19957.31" height="19957.31"/>
  <g>
   <path class="fil1" d="M18366.34 7039.33l0 9852.19c0,155.53 -126.09,281.62 -281.62,281.62l-16212.13 0c-155.53,0 -281.62,-126.09 -281.62,-281.62l0 -9852.19 -276.05 0c-155.53,0 -281.62,-126.09 -281.62,-281.62l0 -812.98c0,-155.53 126.09,-281.62 281.62,-281.62l3320.47 0c32.89,-49.86 69.54,-101.27 85.36,-122.96 5.66,-7.75 9.87,-13.54 12.94,-17.78l-0.24 -0.17c-2.74,3.68 -4.25,5.73 -0.01,-0.01 6.03,-8.16 10.73,-14.52 21.81,-31.31 8.48,-12.81 17.84,-24.69 27.93,-35.62l596.69 -723.78c6.01,-7.3 12.3,-14.21 18.86,-20.75l-0.16 -0.16 207.59 -206.4c11.05,-10.98 22.78,-20.84 35.06,-29.6 6.36,-4.97 9.15,-7.28 18.17,-16.36l8.71 -8.89c0.41,-0.42 0.82,-0.82 1.23,-1.23 20.93,-21.38 38.05,-38.85 71.37,-63.96l332.01 -276.58c1.59,-1.32 3.19,-2.6 4.8,-3.89l-0.41 -0.51c31.47,-25.05 56.58,-43.26 81.95,-61.66 15.76,-11.43 31.64,-22.94 44.69,-32.82 8.15,-6.16 16.54,-11.78 25.12,-16.92l222.24 -155.56c1.51,-1.05 3.02,-2.07 4.54,-3.08l-0.14 -0.21c28.03,-18.69 48.31,-31.49 68.25,-44.08 20.27,-12.79 40.17,-25.38 55.07,-35.36 8.99,-6.03 18.22,-11.44 27.61,-16.3l97.14 -55.8 -0.3 -0.48 19.92 -12.4c6.89,-4.28 13.88,-8.21 20.98,-11.82 49.67,-30.15 84.47,-51.09 97.52,-58.56 26.25,-15.03 63.77,-35.41 117.15,-63.33l33.59 -19.29c4.72,-2.71 9.5,-5.26 14.31,-7.67l-0.01 -0.02 40.83 -20.42c210.16,-105.08 322.37,-161.21 545.03,-251.39 7.1,-2.87 14.26,-5.43 21.44,-7.69l125.02 -48.31 -0.21 -0.51c99.58,-40.38 212.03,-79.1 332.9,-115.92 128.82,-39.25 256.69,-72.93 381.03,-101.72 3.18,-0.73 6.37,-1.38 9.55,-2 87,-20.87 161.75,-37.5 226.91,-50.55 70.45,-14.12 155.78,-29.55 257.1,-46.61l-0.03 -0.18 18.89 -3.24c27.54,-4.78 58.43,-10.15 90.21,-14 5.57,-0.66 11.11,-1.13 16.62,-1.46l11.58 -1.26 -0.03 -0.21c10.34,-1.56 5.4,-0.73 42.01,-6.09 7.69,-1.13 15.37,-1.92 22.99,-2.4l361.68 -39.02c2.94,-0.31 5.89,-0.57 8.82,-0.79l-0.02 -0.31c1.14,-0.08 3.39,-0.09 8.39,-0.19 4.39,-0.2 8.76,-0.3 13.1,-0.3 0.98,-0.02 2,-0.05 3.06,-0.08 2.52,-0.07 5.52,-0.11 8.91,-0.13 33.58,-1.33 75.5,-2.83 128.97,-4.47 40.7,-1.24 85.71,-2.37 136.26,-3.25 1.47,-0.02 2.93,-0.02 4.4,-0.01l0 -1.09 3.85 0 252.4 0 3.85 0c10.07,0 20.01,0.54 29.8,1.57 40.39,0.8 77.11,1.76 110.86,2.78 53.48,1.64 95.4,3.14 128.97,4.47 3.39,0.02 6.39,0.06 8.91,0.13 17.24,0.49 22.59,0.43 24.56,0.57 7.52,0.56 14.96,1.42 22.29,2.55l360.18 38.86c3.68,0.39 7.32,0.87 10.96,1.4l0.04 -0.29c36.61,5.36 31.67,4.53 42.01,6.09 1.31,0.2 2.6,0.42 3.9,0.64l20.98 2.29c1.09,0.12 2.17,0.26 3.24,0.39l0.05 -0.39c31.78,3.85 62.67,9.22 90.21,14l18.89 3.24c3.03,0.52 6.05,1.1 9.04,1.71 97.35,16.45 179.7,31.38 248.03,45.08 67.52,13.52 145.33,30.89 236.39,52.84l0.07 -0.29c124.34,28.79 252.21,62.48 381.03,101.72 120.87,36.82 233.32,75.54 332.9,115.92 4.23,1.72 8.39,3.52 12.49,5.42l129.36 49.98c1.4,0.54 2.78,1.11 4.17,1.68l0.23 -0.57c222.66,90.19 334.87,146.32 545.03,251.39l40.83 20.42c5.25,2.62 10.37,5.41 15.38,8.31l32.51 18.67c53.38,27.92 90.9,48.31 117.15,63.33 14.55,8.33 56.12,33.4 115.19,69.29 0.97,0.59 1.92,1.2 2.87,1.79l0.43 -0.69 19.92 12.4c2.92,1.82 5.79,3.7 8.62,5.61l99.34 57.06c5.6,3.22 11.04,6.62 16.33,10.16l0.17 -0.25c14.9,9.99 34.81,22.57 55.07,35.36 19.95,12.58 40.22,25.39 68.25,44.08 4.72,3.16 9.29,6.45 13.75,9.84l229.21 160.43c2.84,1.99 5.62,4.02 8.36,6.1l0.44 -0.59c13.05,9.88 28.94,21.39 44.69,32.82 25.38,18.4 50.48,36.61 81.95,61.66 6.7,5.32 13.06,10.9 19.14,16.68l317.26 264.29c33.39,25.17 50.51,42.65 71.5,64.09 0.36,0.37 0.71,0.75 1.08,1.12l0.02 -0.02 8.71 8.89c9.68,9.74 12.18,11.69 19.63,17.49l8.29 6.47c8.92,6.98 17.29,14.39 25.15,22.16l0.16 -0.16 207.59 206.4c9.49,9.44 18.14,19.4 26,29.77l599.72 727.44c6.22,7.55 11.97,15.35 17.26,23.33l0.34 -0.23c11.09,16.79 15.79,23.15 21.81,31.31 4.24,5.74 2.73,3.69 -0.01,0.01l-0.24 0.17c3.07,4.24 7.28,10.03 12.94,17.78 15.82,21.68 52.47,73.09 85.36,122.96l3373.32 0c155.53,0 281.62,126.09 281.62,281.62l0 812.98c0,155.53 -126.09,281.62 -281.62,281.62l-276.05 0zm-281.62 -281.62l0 10133.8 -16212.13 0 0 -10133.8 -557.67 0 0 -812.98 3482.84 0c26.13,-65.55 123.92,-204.38 149.6,-239.57 16.94,-23.23 25.77,-34.27 42.21,-59.17l607.02 -736.31 207.59 -206.4c25.75,-20.16 30.73,-23.32 54.32,-47.06 21.04,-21.17 34.16,-36.09 57.05,-52.78l336.46 -280.29c40.35,-32.11 79.82,-58.82 121.14,-90.08l238.56 -166.97c43.44,-28.96 82.33,-51.93 123.33,-79.44l116.76 -67.07 19.92 -12.4c73.44,-44.61 145.56,-86.51 220.58,-125.72l39.85 -22.89c224.58,-112.2 328.57,-165.71 566.06,-261.91l146.26 -56.51c203.79,-82.65 436.35,-150.09 671.03,-204.44 148.74,-35.87 301.9,-66.36 478.13,-96.03 27.59,-4.65 60.88,-10.93 94.8,-15.04l36.97 -4.03c13.73,-2.08 27.36,-4.1 40.91,-6.09l373.67 -40.31c7.42,-0.56 15.16,-0.73 23.07,-0.68 80.86,-3.22 169.23,-6.16 259.13,-7.74l3.85 0 252.4 0 3.85 0c89.9,1.59 178.27,4.52 259.13,7.74 7.91,-0.05 15.65,0.12 23.07,0.68l373.67 40.31c13.55,1.99 27.18,4.01 40.91,6.09l36.97 4.03c33.92,4.11 67.21,10.39 94.8,15.04 176.22,29.68 329.39,60.16 478.13,96.03 234.69,54.35 467.24,121.79 671.03,204.44l146.26 56.51c237.49,96.2 341.48,149.71 566.06,261.91l39.85 22.89c75.02,39.21 147.14,81.11 220.58,125.72l19.92 12.4 116.76 67.07c40.99,27.51 79.89,50.48 123.33,79.44l238.56 166.97c41.32,31.25 80.79,57.97 121.14,90.08l336.46 280.29c22.89,16.68 36,31.6 57.05,52.78 23.59,23.74 28.57,26.9 54.32,47.06l207.59 206.4 607.02 736.31c16.43,24.91 25.27,35.94 42.21,59.17 25.68,35.18 123.47,174.02 149.6,239.57l3535.7 0 0 812.98 -557.67 0zm-13351.03 -1235.34c13.69,-18.88 4.71,-6.85 -0.24,-0.17l0.24 0.17zm10437.31 -0.17c-4.95,-6.68 -13.93,-18.71 -0.24,0.17l0.24 -0.17z"/>
   <path id="_1" class="fil2" d="M18084.73 6757.72l0 10133.8 -16212.13 0 0 -10133.8 -557.67 0 0 -812.98 3482.84 0c26.13,-65.55 123.92,-204.38 149.6,-239.57 16.94,-23.23 25.77,-34.27 42.21,-59.17l607.02 -736.31 207.59 -206.4c25.75,-20.16 30.73,-23.32 54.32,-47.06 21.04,-21.17 34.16,-36.09 57.05,-52.78l336.46 -280.29c40.35,-32.11 79.82,-58.82 121.14,-90.08l238.56 -166.97c43.44,-28.96 82.33,-51.93 123.33,-79.44l116.76 -67.07 19.92 -12.4c73.44,-44.61 145.56,-86.51 220.58,-125.72l39.85 -22.89c224.58,-112.2 328.57,-165.71 566.06,-261.91l146.26 -56.51c203.79,-82.65 436.35,-150.09 671.03,-204.44 148.74,-35.87 301.9,-66.36 478.13,-96.03 27.59,-4.65 60.88,-10.93 94.8,-15.04l36.97 -4.03c13.73,-2.08 27.36,-4.1 40.91,-6.09l373.67 -40.31c7.42,-0.56 15.16,-0.73 23.07,-0.68 80.86,-3.22 169.23,-6.16 259.13,-7.74l3.85 0 252.4 0 3.85 0c89.9,1.59 178.27,4.52 259.13,7.74 7.91,-0.05 15.65,0.12 23.07,0.68l373.67 40.31c13.55,1.99 27.18,4.01 40.91,6.09l36.97 4.03c33.92,4.11 67.21,10.39 94.8,15.04 176.22,29.68 329.39,60.16 478.13,96.03 234.69,54.35 467.24,121.79 671.03,204.44l146.26 56.51c237.49,96.2 341.48,149.71 566.06,261.91l39.85 22.89c75.02,39.21 147.14,81.11 220.58,125.72l19.92 12.4 116.76 67.07c40.99,27.51 79.89,50.48 123.33,79.44l238.56 166.97c41.32,31.25 80.79,57.97 121.14,90.08l336.46 280.29c22.89,16.68 36,31.6 57.05,52.78 23.59,23.74 28.57,26.9 54.32,47.06l207.59 206.4 607.02 736.31c16.43,24.91 25.27,35.94 42.21,59.17 25.68,35.18 123.47,174.02 149.6,239.57l3535.7 0 0 812.98 -557.67 0z"/>
  </g>
  <g>
   <path class="fil1" d="M10033.42 14226.45l-11.71 37.12 -94.7 0c-9.57,-81.31 -17.77,-166 -30.33,-248.85 -12.42,-81.95 10.81,-96.06 53.75,-205.51 -33.31,13.81 -2.01,2.46 -30.43,14.72l-23.91 9.82c-1.75,0.98 -3.68,2.51 -5.38,3.55 -33.12,20.21 -24.3,11.43 -60.32,26.22l-127.56 392.01 -1532.02 -0.19 6.3 -100.66c-16.5,31.98 -11.58,64.17 -17.73,108.75l-4950.12 -0.88 0 -5191.2 7898.72 0.33c19.32,9.59 17.47,-1.09 16.24,68.62 -6.85,384.42 -0.1,830.35 -0.1,1216.64l0 3905.69 -465.84 0.99c24.75,-123.6 -46.77,-626.92 -65.27,-786.63 -20.81,-179.59 -60.22,-608.39 -113.91,-757.22 5.04,-56.76 -62.96,-187.56 -79.55,-248.3 -23.25,-57.72 -102.8,-226.63 -160.58,-264.16 24.57,71.1 58.78,140.7 87.66,215.95 87.26,227.34 149.65,465.31 174.42,713.15 9.37,93.75 3.79,190.18 12.6,283.45l56.8 835.67 -527.03 -0.13c-14.61,-12.77 -15.04,21.21 -9.99,-28.96zm2603.75 2287.27c22.61,-17.96 12.19,-39.63 12.17,-107.56l0 -7334.72 3565.12 0 0 7444.66 1231.05 -0.04 0 -9440.53c-4887.67,0.11 -10303.2,1.44 -14981.25,0.53l0 9439.95 10172.9 -2.29zm-2566.54 -2525.12c3.33,21.96 6.45,45.01 9.43,68.66 18.16,4.98 35.06,12.78 50.23,22.84l252.11 0.06 -44.09 -648.61 0.24 -0.02c-4.47,-49.8 -5.38,-98.77 -6.29,-147.79 -0.8,-43.75 -1.62,-87.57 -5.87,-130.13 -11.44,-114.51 -31.83,-227.79 -59.65,-339.51 -28.27,-113.57 -63.33,-222.92 -103.77,-328.27 -7.44,-19.4 -22.26,-54 -36.94,-88.27 -16.69,-39.03 -33.1,-77.32 -49.74,-124.49 -20.67,-51.26 -16.86,-111.45 15.53,-161.31 52.78,-81.26 161.44,-104.35 242.7,-51.57 47.33,30.75 90.96,86.2 127.86,146.89 44.39,73.04 84.18,159.56 100.11,199.09l-0.24 0.1c2.47,6.19 4.63,12.57 6.43,19.16 1.86,6.82 12.8,33.81 24.62,62.97 25.63,63.24 54.18,133.72 60.19,200.78 47.61,157.58 81.05,465.95 102.86,667.14 3.01,27.78 5.59,51.61 11.29,100.75 7.93,68.47 10.02,85.02 12.33,103.46 18.32,145.41 45.35,359.97 54.78,527.4l113.35 -0.24 0 -3730.73c0,-252.85 -0.38,-321.82 -0.76,-392.33 -1.3,-240.41 -2.64,-487.65 -0.03,-717.62l-7562.04 -0.31 0 4840.57 4629.01 0.82c1.08,-2.34 2.21,-4.71 3.37,-7.1 29.43,-63.61 95.58,-105.98 169.78,-101.61 66.51,3.91 122.19,44.37 148.69,100.68l1239.03 0.15 88.17 -270.98 0.24 0.08c15.39,-47.23 50.6,-87.67 100.14,-108.03 15.76,-6.48 25.98,-10.07 33.67,-12.56 0.57,-0.39 1.14,-0.77 1.72,-1.15 0.03,-0.04 0.1,-0.08 0.19,-0.14l0.01 0.01c0.19,-0.13 0.39,-0.26 0.59,-0.39 3.93,-2.69 7.55,-5.08 10.28,-6.61l0.16 0.28c6.1,-3.41 12.46,-6.5 19.09,-9.22l10.12 -4.16c12.82,-6.84 27.27,-13.62 43.55,-20.38l0.01 0.02c40.47,-16.82 87.26,-18.61 131.31,-1.4 88.47,34.58 133.11,132.98 101.79,221.9 -2.41,12.41 -7.12,24.8 -14.97,37.06 -6.72,15.78 -13.47,30.92 -19.5,44.45 -8.82,19.79 -12.73,28.57 -11.07,39.62zm2755.57 2455.99c5.07,94.4 7.35,137.45 -79.71,206.64l-0.22 -0.27c-29.94,23.84 -67.85,38.09 -109.1,38.09l-10157.34 2.29c-5.13,0.45 -10.32,0.69 -15.56,0.69 -97.2,0 -176.01,-78.81 -176.01,-176.01l0 -9439.95 0.69 0c0,-96.82 78.5,-175.32 175.32,-175.32 3040.72,0.58 6393.06,0.23 9709.45,-0.11 1780.35,-0.18 3550.39,-0.39 5256.28,-0.42 5.11,-0.45 10.29,-0.69 15.52,-0.69 97.2,0 176.01,78.81 176.01,176.01l0 9440.53 -0.69 0c0,96.82 -78.5,175.32 -175.32,175.32l-1215.53 0.04c-5.11,0.45 -10.29,0.69 -15.52,0.69 -97.2,0 -176.01,-78.81 -176.01,-176.01l0 -7268.64 -3213.1 0 0 7158.71 -0.69 0c0,10.17 0.84,25.65 1.53,38.43z"/>
   <path id="_1_0" class="fil3" d="M10033.42 14226.45l-11.71 37.12 -94.7 0c-9.57,-81.31 -17.77,-166 -30.33,-248.85 -12.42,-81.95 10.81,-96.06 53.75,-205.51 -33.31,13.81 -2.01,2.46 -30.43,14.72l-23.91 9.82c-1.75,0.98 -3.68,2.51 -5.38,3.55 -33.12,20.21 -24.3,11.43 -60.32,26.22l-127.56 392.01 -1532.02 -0.19 6.3 -100.66c-16.5,31.98 -11.58,64.17 -17.73,108.75l-4950.12 -0.88 0 -5191.2 7898.72 0.33c19.32,9.59 17.47,-1.09 16.24,68.62 -6.85,384.42 -0.1,830.35 -0.1,1216.64l0 3905.69 -465.84 0.99c24.75,-123.6 -46.77,-626.92 -65.27,-786.63 -20.81,-179.59 -60.22,-608.39 -113.91,-757.22 5.04,-56.76 -62.96,-187.56 -79.55,-248.3 -23.25,-57.72 -102.8,-226.63 -160.58,-264.16 24.57,71.1 58.78,140.7 87.66,215.95 87.26,227.34 149.65,465.31 174.42,713.15 9.37,93.75 3.79,190.18 12.6,283.45l56.8 835.67 -527.03 -0.13c-14.61,-12.77 -15.04,21.21 -9.99,-28.96zm2603.75 2287.27c22.61,-17.96 12.19,-39.63 12.17,-107.56l0 -7334.72 3565.12 0 0 7444.66 1231.05 -0.04 0 -9440.53c-4887.67,0.11 -10303.2,1.44 -14981.25,0.53l0 9439.95 10172.9 -2.29z"/>
  </g>
  <path class="fil2" d="M6337.79 10766.02c176.69,-42.79 219.33,179.38 250.85,316.31l996.22 0c25.79,15.91 63.62,84.93 73.22,115.01l-144.03 0.34c-7.09,47.14 0.42,172.08 -3.22,190.29 -8.79,43.9 0.79,8.97 -12.52,24.06 -75.41,48.55 -305.93,-60.8 -346.22,84.27 -39.51,142.21 116.72,233.54 205.44,144.83 2,-52.49 -38.98,-66.77 4.81,-105.06 39.82,-23.34 119.19,35.37 147.03,62.31 59.39,57.45 26.22,90.48 -14.61,135.68l101.27 176.4c-19.8,19.31 -35.1,25.24 -61.5,33.52l-93.79 -185.89c-27.99,14.56 -277.96,218.03 -290.95,239.22l-104.35 -75.41c26.78,-35.66 183.28,-111.97 234.41,-154.04l-39.89 -18.44c-12.45,-5.03 -33.21,-15.84 -39.69,-19.43 -86.85,-48.17 -131.36,-117.67 -155.5,-222.6l-121.83 1.61c-4.23,34.22 1.16,65.29 -10.93,92.73 -50.49,32.34 -90.33,-23.99 -117.49,-57.27 -168.39,-206.28 77.99,-152.03 255.37,-152.03 94.02,-141.37 212.34,-51.68 343.25,-86.62l0.02 -105.58 -1080.79 -2.94 -4.84 198.82c75.09,-36.51 196.17,-108.86 284.53,54.84 62.18,115.18 14.07,247.82 -39.25,340.9 -22.31,-8.72 -99.04,-65.24 -114.42,-83.12 17.67,-47.2 97.49,-170.25 83.94,-226.65 -33.45,-81.42 -153.67,29.47 -212.64,66.08l-2.05 280.05c-24.15,-8.93 -113.19,-67.36 -131.06,-85.69l3.79 -113.9c-18.16,16.55 -74.18,47.15 -108.6,54.66 -121.3,26.48 -292.77,-97.86 -279.23,-236.67 17.26,-176.91 234.03,-193.09 308.51,-138.03 37.84,27.98 50.91,62.52 78.03,94.42l2.04 -205.46 -446.54 -0.2c-25.92,-18.14 -61.21,-86.8 -74.21,-112.99l878.85 -2.08c-9.13,-82.59 -39.17,-139.81 -84.6,-183.18l-71.25 0.67c-13.45,-41.26 -61.88,-90.09 -45.61,-133.74zm-1976.24 313.45l1101.14 3.02 63.04 112.43 -159.04 2.52 -4.29 612.75c-36.42,-15.6 -97.29,-60.06 -128.98,-84.57l7.2 -528.26 -166.31 0 0 612.07 -129.35 -81.93 3.04 -120.77c-79.64,35.14 -143.76,111.7 -269.11,59.61 -201.49,-83.72 -237.16,-358.39 7.86,-398.2 172.29,-27.98 185.16,61.85 261.14,111.59l-0.27 -182.24 -575.85 -0.01 -2.48 612.28 -130.19 -81.45 6.56 -185.16c-136.2,49.27 -166.26,18.82 -249.36,-42.79 -28.42,38.98 -58.93,64.19 -91.93,97.06 60.88,96.13 129.68,139.68 173.96,204.23l-48.31 46.4 -201.83 -260.61c-24.4,-31.44 -153.34,-204.89 -36.49,-209.19 31.65,-1.17 46.95,26.72 83.39,34.73l0.29 -215.66c-121.33,0.01 -182.31,16.66 -210.47,-21.41l-52.09 -93.41 700.45 -0.23c-4.44,-38.04 -22.47,-94.05 -38.7,-127.1 -25.23,-51.36 -40.73,-59.43 -111.39,-56.21 -13.81,-17.05 -67.09,-104.36 -56.6,-125.19 24.39,-48.45 129.51,15.12 144.58,27.46 61.09,50.02 86.84,179.5 110.39,278.23zm3815.55 3075.21l25.98 -500.16c-46.09,102.17 -61.15,183.75 -114.99,281.46 -42.42,76.99 -107.69,175.88 -215.34,179.51 -12.67,-23.15 -47.86,-65.23 -69.22,-86.77 -24.1,-5.65 -27.98,-12.6 -65.79,-65.58l-232.26 -300.76c-5,-6.36 -11.01,-14.3 -14.24,-18.92 -28.7,-41.01 -117.42,-155.39 -122.6,-201.92 -30.06,-75.86 -78.26,-99.38 -10.74,-168.92l-174.6 -317.54c-37.15,-76.52 -55.35,-2.24 -181.91,-164.63 -23.27,-29.87 -35.12,-46.89 -56.03,-78.93 -18.8,-28.78 -31.54,-60.8 -52.38,-89.6l-1098.44 472.16c-18.77,-19.85 -104.46,-221.87 -110.75,-253.24l1116.47 -440.27c3.04,-8.21 -0.57,-237.62 121.64,-163.55 31.54,-39.36 35.06,-39.13 89.69,-27.51 16.96,-95.92 60.22,-76.2 126.26,-45.9 7.53,-12.87 22.03,-31.92 37.02,-45.16 13.58,-11.99 34.17,-23.08 61.34,-18.64 43.34,7.07 53.13,58.32 89.41,90.1l1396.06 -541.91c5.12,-87.99 6.92,-62.78 -28.59,-126.7 -20.16,-36.28 -38.8,-72.8 -56.58,-112.57 -26.87,-60.12 -77.75,-193.85 -78.77,-262.14l-14.97 -69.9c-44.75,3.5 -87.35,-5.02 -113.02,-27.01 -32.03,-27.44 -25.2,-57.79 -40.3,-102.06 -33.8,-15.51 -64.39,-23.81 -90.81,-45.9 -18.36,-15.37 -49.59,-48.8 -58.24,-76.15 -29.84,-94.39 27.01,-159.91 52.05,-216.34 -109.56,-195.96 -25.52,-370.14 169.06,-413.05 43.76,-123.12 50.09,-156.73 136.55,-228.52 80.31,-66.69 159.95,-60.44 284.3,-51.21 35.92,-32.96 44.72,-136.51 172.59,-114.61 8.54,-11.73 -3.22,-20.56 59.13,-20.11l1900.9 0.76c17.72,0 93.1,8.79 92.93,-8.53l-3649.8 0c-26.86,-0.01 -79.12,-12.01 -88.31,13.05 5.89,45.11 38.34,62.52 61.63,124.59l-162.4 2.04 -3.05 761.58 -160.28 -100.84 6.63 -356.86 -214.05 0.37c-3.52,5.42 -12.41,13.73 -17.08,18.33 -11.24,22.42 23,121.1 -56.11,112.71 -48.8,-5.17 -133.21,-121.37 -154.87,-166.96 -20.81,-43.77 -24.09,-67.31 4.5,-101.02 64.48,-17.19 347.25,-6.49 434.09,-6.49l3.47 -161.29 -647.92 0 -4.02 763.28 -164.59 -104.76 12.93 -658.46 -204.73 0.36 -2.26 762.62c-54.7,-19.19 -107.11,-75.26 -160.96,-95.36l7.05 -237.33c-100.55,39.89 -232.26,45.6 -303.5,-53.67 -8.69,6.71 -7.37,4.24 -15.12,12.41l-42.42 50.38c-24.15,21.1 -36.51,29.89 -62.11,55 40.91,90.43 197.82,217.03 218.19,263.4l-64.17 53.34c-45.26,-49.99 -81.91,-105.83 -124.73,-161.41 -51.01,-66.22 -353.86,-411.27 -173.35,-425.46 49.11,-3.86 57.89,41.18 106.86,40.76l0.07 -264.33 -684.23 -0.62 -1.86 245.53c40.63,-9.72 221.75,-164.48 352.12,69.75 81.51,146.45 7.6,368.26 -52.59,422.98 -28.15,-12.08 -115.95,-81.38 -139.54,-103.18 25.74,-45.49 52.29,-97.61 76.11,-153.31 30.47,-71.27 54.12,-105.86 5.52,-163.42 -40.93,-21.63 -232.32,93.83 -241.46,133.74l-0.12 333.34c-37.44,-17.76 -129.45,-73.93 -162.95,-105.22l5.82 -144.36c-98.6,56.63 -171.03,114.03 -308.49,39.59 -74.16,-40.16 -181.41,-126.39 -176.76,-250.19 7.9,-210.07 258.15,-267.6 385.08,-186.82 50.84,32.35 60.03,81.64 97.49,118.89l3.23 -257.43 -687.65 0 -0.51 761.19 -162.02 -100.84 10.4 -660.34 -106.6 -0.23 -87.28 -140.01 209.74 -2.96c-6.92,-30.86 -29.93,-62.4 -40.11,-103.79 -10.9,-44.26 -11.86,-99.44 5.2,-142.39 29.92,-75.34 91.36,-104.1 182.86,-122.61l21.73 -15.33c2.45,-1.14 17.45,-5.95 20.52,-6.58l7096.82 -2.34 0 -305.27 -7898.72 -0.33 0 5191.2 4950.12 0.88c6.16,-44.57 1.23,-76.77 17.73,-108.75z"/>
  <path class="fil2" d="M3968.9 9401.2c128.62,-4.75 215.47,40.86 302.9,95.05 62.69,38.86 171.53,109.75 213.83,168.87l-25.92 51.45c-31.52,-15.74 -47.43,-33.88 -75.3,-53.95 -215.42,-155.17 -510.65,-214.23 -476.92,105.16 86.23,12.28 2878,2.41 3263.39,2.41 83.34,0 152.55,-11.38 198.93,16.82 9.19,-25.07 61.45,-13.06 88.31,-13.05l3649.8 0c0.17,17.32 -75.21,8.53 -92.93,8.53l-1900.9 -0.76c-62.36,-0.45 -50.59,8.37 -59.13,20.11 48.1,12.44 53.04,18.73 93.47,38.96 40.27,20.16 144.55,17.17 279.19,76.15 166.46,72.91 176.63,159.77 219.75,263.73 52.35,45.42 95.98,103.27 133.28,177.5 26.24,52.23 69.81,182.8 44.6,251.31 -1.4,17.38 0.96,49.06 -13.75,55.32 3.53,82.38 -42.98,148.57 -89.31,189.55 -29.37,73.05 -23.31,98.4 -82.41,146.01l-53.85 -13.23c-18.15,32.94 -40.24,62.8 -67.37,88.08l-5.89 -109.46c25.68,328.62 -112.94,235.62 -145.54,423.21 78.16,-21.56 186.41,-70.56 263.2,-101.54 85.17,-34.37 166.91,-65.96 254.79,-100.07 75.01,-29.11 480.99,-177.96 511.74,-207.37l-517.77 -1009.91 -154.58 6.94 -12.3 -65.73 127.22 -20.99 -15.77 -31.82c6.87,-9.03 -7.76,-9.53 15.72,-5.72l20.52 -15.19 48.33 46.5c23.44,10.45 311.17,-26.6 352.18,-20.29l18.3 59.2 -296.77 24.84c10.99,25.55 6.5,18.56 26.18,39.28 13.14,13.82 14.35,13.52 30.93,27.63l781.59 815.26c19.44,21.27 35.5,35.93 51.32,59.21l-376.87 1813.25c-12.14,28.72 -4.35,8.35 -16.01,17.31 53.69,148.83 93.1,577.63 113.91,757.22 18.5,159.71 90.02,663.03 65.27,786.63l465.84 -0.99 0 -3905.69c0,-386.28 -6.75,-832.22 0.1,-1216.64 1.24,-69.71 3.08,-59.03 -16.24,-68.62l0 305.27 -7096.82 2.34c-3.06,0.63 -18.06,5.44 -20.52,6.58l-21.73 15.33z"/>
  <path class="fil4" d="M8057.81 12264.49c59.67,60.55 54.68,198.5 64.38,299.48 12.95,134.82 94.32,909.03 91.6,973.57 -4.16,-6.85 -181.63,-176.53 -227.18,-240.47 154.92,-294.57 70.42,-691.46 71.2,-1032.58zm910.59 425.83c5.04,18.88 5.8,14.72 7.37,41.99l-88.48 39.23c-6.69,121.02 -17.99,243.43 -26.48,364.69 -5.17,73.61 -32.04,313.95 -21.75,368.04l107.04 3.4 -135.49 19.14 46.73 -654.04c10.93,-146.82 9.51,-90.01 -38.67,-192.45 34.24,-42.82 66.23,-62.45 86.96,-84.49 -15.13,-35.57 -33.57,-62.83 -54.49,-91.42 -55.92,-76.44 -9.94,-153.32 18.48,-222.16 20.8,-50.38 1.67,-67.1 -17.73,-115.5 -28.67,-71.52 -54.15,-134.22 -82.37,-204.94 -72.36,-181.34 -46.4,-86.92 -44.86,-211.47 0.5,-40.5 1.81,-21.04 -9.9,-32.87 -62.76,49.22 -147.47,148.45 -212.3,208.02 -38.52,35.38 -387.77,140.9 -501.06,215.28 -41.73,81.96 -64.65,395.6 -79.66,513.92 -22.07,173.95 -41.03,350.1 -68.15,522.8 -48.82,-39.81 -143.92,-185.68 -184.25,-214.45l-47.7 30.57c-125.18,92.59 -187.41,202.86 -263.75,279.02 -67.53,69.54 -19.32,93.06 10.74,168.92 -6.74,-48.55 -39.73,-58.54 -40.46,-131.72 37.2,15.26 42.98,38.42 82.63,93.76l499.13 683.93c3.04,20.55 0.85,6.7 -4.03,18.22 -38.17,12.55 -36.41,-4.76 -78.49,-54.33l-23.89 -22.68c21.36,21.54 56.55,63.62 69.22,86.77 107.65,-3.62 172.92,-102.52 215.34,-179.51 53.84,-97.71 68.9,-179.29 114.99,-281.46l-25.98 500.16 -6.3 100.66 1775.85 0.19 43.24 -472.58 -186.6 84.48 -52.18 0.63c-4.95,5.88 -129.06,30.3 -153.86,38.69 -49.64,16.82 -87.49,41.95 -130.03,57.19l7 -173.9c-24.08,28.04 -53.5,47.69 -86.4,76.32 -215.82,187.84 -570.88,291.7 -869.52,276.49l55.15 -11.19c15.3,-1.3 29.71,-2.73 43.91,-4.33 196.64,-22.19 372.91,-74 546.38,-163.75 106.3,-54.99 288.71,-213.17 318.16,-298.19 11.21,-32.36 14.34,-156.6 10.14,-195.05 -99.53,10.44 -296.71,-8.42 -371.71,-54.99l23.98 -518.87c44.07,-10.56 317.29,21.3 382.23,27.93 19.47,-186.97 13.69,-375.32 24.38,-561.85 4.92,-85.97 15.69,-168.61 33.33,-252.03 15.88,-75.01 54.61,-157.77 64.83,-215.12l-87.75 -44.11c3.77,-65.39 -16.73,-108.27 -47.03,-146.07 -32.19,-40.15 -70.12,-63.71 -95.06,-98.28 -31.9,-17.24 -23.99,-14.6 -47.76,-37.81 -9.77,8.28 -15.74,-20.66 -2.16,54.14 45.35,249.71 52.43,180.17 -121.05,379.58 -200.34,230.28 -158.61,152.41 -214.44,425.51 -17.74,86.74 -41.2,181.38 -54.64,270.25 -13.5,-9.09 -9.5,10.42 -10.78,-8.31z"/>
  <path class="fil4" d="M4642.45 10263.63c-0.72,0.89 -348.29,292.17 -336.78,50.94 7.42,-155.42 206.78,-223.71 336.78,-50.94zm1004.69 -350.51l301.36 2.99 -0.38 257.26c-45.28,51.38 -234.09,70.42 -303.72,38.91l2.74 -299.16zm1722.68 -126.11c-46.38,-28.2 -115.59,-16.82 -198.93,-16.82 -385.39,0 -3177.16,9.87 -3263.39,-2.41 -33.73,-319.39 261.5,-260.32 476.92,-105.16 27.87,20.08 43.78,38.22 75.3,53.95l25.92 -51.45c-42.3,-59.12 -151.15,-130.01 -213.83,-168.87 -87.43,-54.18 -174.28,-99.8 -302.9,-95.05 -91.49,18.51 -152.94,47.27 -182.86,122.61 -17.06,42.95 -16.1,98.13 -5.2,142.39 10.19,41.39 33.2,72.92 40.11,103.79l-209.74 2.96 87.28 140.01 106.6 0.23 -10.4 660.34 162.02 100.84 0.51 -761.19 687.65 0 -3.23 257.43c-37.46,-37.25 -46.65,-86.53 -97.49,-118.89 -126.93,-80.78 -377.17,-23.25 -385.08,186.82 -4.65,123.81 102.6,210.03 176.76,250.19 137.46,74.44 209.89,17.04 308.49,-39.59l-5.82 144.36c33.5,31.29 125.51,87.46 162.95,105.22l0.12 -333.34c9.14,-39.91 200.53,-155.38 241.46,-133.74 48.61,57.56 24.96,92.15 -5.52,163.42 -23.82,55.7 -50.36,107.82 -76.11,153.31 23.59,21.8 111.39,91.1 139.54,103.18 60.19,-54.71 134.09,-276.53 52.59,-422.98 -130.37,-234.23 -311.48,-79.47 -352.12,-69.75l1.86 -245.53 684.23 0.62 -0.07 264.33c-48.98,0.42 -57.75,-44.62 -106.86,-40.76 -180.51,14.19 122.34,359.24 173.35,425.46 42.82,55.58 79.47,111.42 124.73,161.41l64.17 -53.34c-20.38,-46.37 -177.28,-172.97 -218.19,-263.4 25.6,-25.12 37.96,-33.9 62.11,-55l42.42 -50.38c7.74,-8.17 6.43,-5.71 15.12,-12.41 71.24,99.27 202.95,93.56 303.5,53.67l-7.05 237.33c53.84,20.1 106.25,76.17 160.96,95.36l2.26 -762.62 204.73 -0.36 -12.93 658.46 164.59 104.76 4.02 -763.28 647.92 0 -3.47 161.29c-86.84,0 -369.61,-10.71 -434.09,6.49 -28.59,33.72 -25.31,57.26 -4.5,101.02 21.66,45.59 106.07,161.79 154.87,166.96 79.11,8.39 44.87,-90.29 56.11,-112.71 4.67,-4.6 13.56,-12.91 17.08,-18.33l214.05 -0.37 -6.63 356.86 160.28 100.84 3.05 -761.58 162.4 -2.04c-23.29,-62.08 -55.74,-79.48 -61.63,-124.59z"/>
  <path class="fil1" d="M10951.21 7533.52c-275.43,47.08 -254.09,450.63 38.26,458.3 291.5,7.65 594.5,-0.02 887.29,-0.02 126.1,0 1701.15,10.25 1779.81,-3.83 265.09,-47.46 249.05,-451.86 -47.48,-458.4 -292.85,-6.45 -593.71,-0.02 -887.47,-0.02 -126.74,0 -1689.76,-9.81 -1770.41,3.97z"/>
  <path class="fil1" d="M7766.98 8510.08c-257.17,60.55 -240.36,454.34 71.34,456.39l2213.55 -0.13c101.77,0 361.97,12.44 445.91,-5.44 251.03,-53.48 249.13,-456.28 -74.16,-456.99 -192.54,-0.42 -2582.51,-11.29 -2656.63,6.17z"/>
  <path class="fil1" d="M13155.37 8234.76c-257.99,75.8 -230.89,453.15 90.06,453.38l2213.54 -0.07c96.37,0 366.97,11.58 443.74,-8.64 238.05,-62.69 243.21,-454.32 -97.34,-453.92l-1774.21 0.06c-147.39,0 -784.91,-17.51 -875.78,9.19z"/>
  <path class="fil1" d="M6235.55 7862.67c-264.97,68.31 -233.39,452.86 73.36,454.85l2222.19 -0.08c99.51,0 357.94,11.86 437.8,-6.36 248.01,-56.57 247.67,-453.82 -74.48,-456.21l-2222.02 0.1c-95.11,0 -363.64,-11.17 -436.86,7.7z"/>
  <path class="fil5" d="M10396.87 10979.99c-30.74,29.41 -436.73,178.26 -511.74,207.37 -87.88,34.11 -169.63,65.7 -254.79,100.07 -76.79,30.98 -185.03,79.98 -263.2,101.54l4.33 180.17c23.77,23.21 15.86,20.57 47.76,37.81 74.33,3.92 868.29,-325.9 1019.91,-367.87 9.7,71.02 -5.86,221.37 -8.26,300.69 -4.47,146.83 -41.34,850.75 -31.34,931.71 16.59,60.74 84.59,191.54 79.55,248.3 11.66,-8.96 3.86,11.41 16.01,-17.31l376.87 -1813.25c-15.82,-23.28 -31.88,-37.94 -51.32,-59.21l-781.59 -815.26c-16.58,-14.11 -17.79,-13.81 -30.93,-27.63 -19.69,-20.72 -15.2,-13.73 -26.18,-39.28l296.77 -24.84 -18.3 -59.2c-41,-6.32 -328.74,30.73 -352.18,20.29l-48.33 -46.5 -20.52 15.19c48.91,61.43 157.44,256.39 210.19,337.49 14.67,22.55 28.61,41.41 43.35,66.12l419.12 683.53 -115.17 40.09z"/>
  <path class="fil4" d="M10026.67 13630.13c11.24,88.17 44.89,213.2 64.56,303.44 17.77,81.57 9.16,76.3 -13.01,149.58 -14.21,46.95 -28.94,98.34 -44.8,143.3 -5.05,50.17 -4.62,16.19 9.99,28.96l527.03 0.13 -56.8 -835.67c-8.81,-93.27 -3.23,-189.7 -12.6,-283.45 -24.77,-247.84 -87.15,-485.81 -174.42,-713.15 -28.88,-75.25 -63.1,-144.85 -87.66,-215.95 -18.46,-9.01 -22.33,-19.89 -43.93,-32.92 -18.28,-11.05 -40.04,-20.71 -61.26,-31.56 -41.86,-21.4 -83.36,-50.13 -126.85,-59.5 -23.61,-7.78 -5.16,-3.88 -12.93,5.59 -19.2,236.06 -45.56,603.8 -5.94,832.36 24.25,139.85 141.56,334.87 86.93,534.08 -26.55,96.79 -53.4,45.62 -48.32,174.78z"/>
  <path class="fil6" d="M8689.27 11431.08c2.12,-0.99 5.11,-1.63 6.66,-2.17 1.55,-0.53 4.83,-1.4 6.68,-2.11 15.15,-5.83 -4.62,6.38 13.15,-4.56 26.47,-16.29 -7.69,29.82 12.47,-12.95 1.39,-2.92 4.12,-78.25 55.69,-107.32 59.39,-33.49 76.39,61.06 158.24,14.78 39.92,-22.58 80.18,-50.51 158.46,8.47 84.48,63.65 85.01,145.71 161.73,89.28 -58.44,56.33 -113.93,57.61 -203.89,20.65 -32.59,-13.39 -63.26,-29.98 -87.99,-47.31 -47.2,-33.08 -29.24,-26.95 -102,-24.47 -14.2,25.92 -42.79,56.18 -70.61,71.43 -44.61,24.45 -71.38,12.05 -108.59,-3.72zm368.02 -446.25c46.21,-31.83 83.98,-33.9 138.1,-7.73 -26.29,25.12 -19.27,59.6 -65.06,62.73 -50.48,3.43 -46.46,-38.93 -73.04,-54.99zm-273.13 -10.18c-3.58,38.77 -21.55,69.99 -66.1,64.81 -39.27,-4.57 -46.26,-40.49 -61.47,-64.5 41.04,-18.76 81.6,-18.52 127.57,-0.31zm-226.43 171.93c1.02,68.29 51.9,202.02 78.77,262.14 17.78,39.76 36.42,76.29 56.58,112.57 35.5,63.92 33.71,38.71 28.59,126.7l-6.93 69.46c11.7,11.82 10.4,-7.63 9.9,32.87 -1.54,124.54 -27.49,30.13 44.86,211.47 28.22,70.72 53.71,133.42 82.37,204.94 19.4,48.41 38.53,65.12 17.73,115.5 -28.42,68.84 -74.4,145.73 -18.48,222.16 20.93,28.6 39.37,55.85 54.49,91.42 -20.74,22.04 -52.73,41.67 -86.96,84.49 48.18,102.44 49.59,45.63 38.67,192.45l-46.73 654.04 135.49 -19.14 -107.04 -3.4c-10.29,-54.09 16.58,-294.43 21.75,-368.04 8.49,-121.26 19.8,-243.67 26.48,-364.69l88.48 -39.23c-1.58,-27.27 -2.34,-23.11 -7.37,-41.99 -7.83,-49.74 -24.52,-18.04 -9.35,-90.92l48.04 -254.22c28.08,-158.5 11.92,-163.84 85.48,-218.55 51.79,-38.53 114.58,-111.12 109.7,-190.06 -3.38,-54.55 -48.68,-101.57 -79.89,-117.24 -65.26,-32.74 -245.04,29.8 -289.08,-113.07 39.04,-2.42 153.12,62.18 283.65,-19.66 257.53,-161.44 186.35,-573.88 193.33,-809.36 -154.68,-134.38 -103.09,-124.29 -146.8,-181.26 -0.8,-1.05 -4.26,-1.15 -4.89,-3.97 -0.64,-2.89 -3.47,-2.56 -5.24,-3.8 -151.44,78.78 -412.73,28.37 -520.87,30.86 -33.62,38.76 -34.14,18.61 -39.71,86.4l-35.04 341.12z"/>
  <path class="fil1" d="M9151.03 15730.26c22.91,-100.38 -45.64,-176.14 -120.03,-195.3 -60.68,-15.63 -1683.12,-7.12 -1919.33,-6.36 -257.02,0.84 -239.17,288.03 -69.13,329.52 59.2,14.45 1683.6,5.9 1919.68,5.36 105.93,-0.24 168.11,-42.49 188.82,-133.22z"/>
  <path class="fil1" d="M5102.9 14876.96c18.24,-91.61 -47.06,-170.16 -115.73,-189.99 -63.41,-18.31 -1682.87,-8.2 -1922.32,-7.7 -257.19,0.53 -243.74,285.42 -72.81,329.62 52.57,13.6 1694.69,6.65 1923.1,5.33 101.18,-0.59 169.9,-47.5 187.77,-137.26z"/>
  <path class="fil1" d="M5493.58 16000.61c32.44,-93.15 -36.23,-181.02 -103.14,-204.68 -68.05,-24.05 -1674.57,-10.1 -1920.05,-10.6 -104.95,-0.21 -174.02,31.03 -200.33,116.32 -31.75,102.88 34.17,184.55 106.68,209.91 59.86,20.95 1678.95,8.18 1918.56,8.6 112.07,0.19 168.17,-33.08 198.29,-119.55z"/>
  <path class="fil1" d="M8711.04 14682.63c36.69,-102.9 -32.86,-184.09 -97.45,-209.39 -58.21,-22.81 -236.59,-11.86 -310.6,-11.86l-1284.18 0c-106.87,0 -390.52,-17.06 -457.6,25.52 -125.1,79.41 -91.61,253.07 25.75,297.7 69.69,26.49 1672.19,11.36 1918.8,11.85 107.14,0.22 174.78,-28.27 205.28,-113.82z"/>
  <path class="fil1" d="M7808.17 15155.76c16.31,88.02 88.89,134.61 190.61,135.04 233.16,0.99 1863,9.34 1920.38,-6.25 170.1,-46.21 183.63,-327.72 -69.88,-328.8l-1605.43 0.11c-143.28,0 -482.74,-54.01 -435.69,199.89z"/>
  <path class="fil4" d="M5945.83 11596.77c-67.07,-55.92 -23.19,-157.37 38.01,-188.14 82.77,-41.61 157.69,27.63 193.88,71.98 -25.8,34.03 -175.38,120.79 -231.88,116.16zm642.82 -514.44c-31.52,-136.94 -74.16,-359.1 -250.85,-316.31 -16.27,43.66 32.16,92.48 45.61,133.74l71.25 -0.67c45.43,43.37 75.47,100.58 84.6,183.18l-878.85 2.08c13,26.18 48.29,94.85 74.21,112.99l446.54 0.2 -2.04 205.46c-27.12,-31.9 -40.19,-66.44 -78.03,-94.42 -74.48,-55.05 -291.25,-38.88 -308.51,138.03 -13.54,138.81 157.93,263.16 279.23,236.67 34.42,-7.51 90.44,-38.11 108.6,-54.66l-3.79 113.9c17.87,18.33 106.91,76.76 131.06,85.69l2.05 -280.05c58.96,-36.61 179.19,-147.49 212.64,-66.08 13.55,56.4 -66.27,179.45 -83.94,226.65 15.38,17.88 92.1,74.4 114.42,83.12 53.32,-93.08 101.42,-225.72 39.25,-340.9 -88.36,-163.7 -209.44,-91.35 -284.53,-54.84l4.84 -198.82 1080.79 2.94 -0.02 105.58c-130.91,34.95 -249.23,-54.74 -343.25,86.62 -177.38,0 -423.76,-54.24 -255.37,152.03 27.16,33.28 67,89.61 117.49,57.27 12.08,-27.44 6.7,-58.51 10.93,-92.73l121.83 -1.61c24.14,104.94 68.64,174.44 155.5,222.6 6.48,3.59 27.23,14.4 39.69,19.43l39.89 18.44c-51.13,42.07 -207.63,118.38 -234.41,154.04l104.35 75.41c12.99,-21.18 262.96,-224.66 290.95,-239.22l93.79 185.89c26.39,-8.28 41.7,-14.21 61.5,-33.52l-101.27 -176.4c40.83,-45.2 74,-78.23 14.61,-135.68 -27.84,-26.93 -107.2,-85.65 -147.03,-62.31 -43.79,38.29 -2.81,52.57 -4.81,105.06 -88.72,88.71 -244.95,-2.62 -205.44,-144.83 40.29,-145.07 270.81,-35.72 346.22,-84.27 13.31,-15.09 3.73,19.84 12.52,-24.06 3.64,-18.21 -3.87,-143.15 3.22,-190.29l144.03 -0.34c-9.6,-30.09 -47.43,-99.11 -73.22,-115.01l-996.22 0z"/>
  <path class="fil4" d="M4948.31 11463.72c-33.39,46.98 -332.85,222.85 -317.1,35.34 6.15,-73.14 59.04,-122.82 140.37,-119.51 61.53,2.49 157.46,40.73 176.73,84.17zm-940.47 -22.23c-12.1,-37.45 -10.52,-202.79 -1.62,-244.2l239.52 0.7 -0.46 212.93c-60.95,36.53 -158.82,50.29 -237.44,30.56zm1358.85 -244.04l159.04 -2.52 -63.04 -112.43 -1101.14 -3.02c-23.55,-98.74 -49.3,-228.21 -110.39,-278.23 -15.07,-12.34 -120.19,-75.91 -144.58,-27.46 -10.49,20.84 42.79,108.14 56.6,125.19 70.66,-3.22 86.17,4.85 111.39,56.21 16.23,33.05 34.26,89.06 38.7,127.1l-700.45 0.23 52.09 93.41c28.16,38.08 89.14,21.42 210.47,21.41l-0.29 215.66c-36.44,-8 -51.74,-35.89 -83.39,-34.73 -116.85,4.3 12.09,177.75 36.49,209.19l201.83 260.61 48.31 -46.4c-44.28,-64.55 -113.08,-108.1 -173.96,-204.23 33,-32.87 63.51,-58.09 91.93,-97.06 83.09,61.61 113.16,92.06 249.36,42.79l-6.56 185.16 130.19 81.45 2.48 -612.28 575.85 0.01 0.27 182.24c-75.98,-49.74 -88.85,-139.57 -261.14,-111.59 -245.03,39.8 -209.35,314.48 -7.86,398.2 125.35,52.09 189.47,-24.47 269.11,-59.61l-3.04 120.77 129.35 81.93 0 -612.07 166.31 0 -7.2 528.26c31.69,24.51 92.56,68.97 128.98,84.57l4.29 -612.75z"/>
  <path class="fil5" d="M7325.62 12189.91c10.55,32.81 38.18,70.85 22.91,116.93 -14.62,44.14 -48.53,46.32 -93.17,23.57l-8.83 10.19c-1.11,1.38 -2.82,3.61 -4,5.13l-23.15 28.67c-62.33,55.15 -86.09,-39.62 -116.09,-56.83 -12.19,10.24 -3.78,0.57 -15.62,17.61 -58.6,84.42 -69.75,29.88 -111.11,6.57 -65.07,97.06 -57.14,37.64 -92.93,32 -32.29,7.68 -47.66,22.86 -83.36,26.83l-1116.47 440.27c6.3,31.37 91.98,233.39 110.75,253.24l1098.44 -472.16 102.45 -46.6 279.12 -125.91c32.34,-12.59 60.7,-24.87 95.84,-41.25l338.78 -141.94c37.91,-16.09 83.47,-38.97 122.54,-52.69l169.69 -72.78c113.29,-74.38 462.54,-179.9 501.06,-215.28 64.82,-59.56 149.54,-158.79 212.3,-208.02l6.93 -69.46 -1396.06 541.91z"/>
  <path class="fil2" d="M9419.23 11606.95c24.94,34.57 62.87,58.13 95.06,98.28 30.3,37.8 50.8,80.68 47.03,146.07l87.75 44.11c68.43,-22.38 126.32,-1.69 162.93,56.47 -111.31,49.94 -80.06,265.09 -79.71,415.84 0.39,166.15 0.84,332.32 1.25,498.47 0.82,332.3 2,664.63 2.05,998.9l15.53 2.97 52.18 -0.63c-11.63,-330.16 -26.73,-661.03 -33.23,-992.81 -3.18,-163.01 -12.35,-329.53 -16.39,-489.72 -5.17,-204.57 -39.93,-308.26 58.87,-434.81 59.5,9.94 120.45,58.7 178.62,82.62 8.03,29.19 2.88,25.68 15.77,50.6 43.49,9.37 84.99,38.1 126.85,59.5 21.21,10.86 42.98,20.52 61.26,31.56 21.59,13.03 25.47,23.91 43.93,32.92 57.78,37.54 137.33,206.45 160.58,264.16 -10,-80.96 26.87,-784.88 31.34,-931.71 2.4,-79.32 17.96,-229.67 8.26,-300.69 -151.62,41.97 -945.58,371.79 -1019.91,367.87z"/>
  <path class="fil7" d="M9649.07 11895.41c-10.22,57.35 -48.96,140.11 -64.83,215.12 -17.64,83.42 -28.41,166.06 -33.33,252.03 -10.69,186.53 -4.91,374.88 -24.38,561.85l-7.44 113.06 -24.24 409.03 -2.81 23.85c4.2,38.46 1.07,162.69 -10.14,195.05 -29.45,85.02 -211.86,243.2 -318.16,298.19 -173.47,89.75 -349.74,141.56 -546.38,163.75 -14.2,1.6 -28.61,3.03 -43.91,4.33l-55.15 11.19c298.64,15.21 653.7,-88.65 869.52,-276.49 32.9,-28.63 62.32,-48.28 86.4,-76.32l-7 173.9c42.54,-15.24 80.39,-40.36 130.03,-57.19 24.8,-8.39 148.91,-32.81 153.86,-38.69l-15.53 -2.97c-0.05,-334.27 -1.23,-666.6 -2.05,-998.9 -0.41,-166.15 -0.86,-332.32 -1.25,-498.47 -0.35,-150.75 -31.6,-365.9 79.71,-415.84 -36.61,-58.16 -94.5,-78.85 -162.93,-56.47z"/>
  <path class="fil8" d="M8882.37 9916.45c7.01,102.43 83.87,305.73 118.85,399.52 19.22,51.54 125.92,315.13 153.71,351.3 -10.36,14.11 1.78,9.97 -17.75,16.83l16.18 4.11c1.77,1.24 4.6,0.91 5.24,3.8 0.63,2.82 4.09,2.92 4.89,3.97 43.71,56.97 -7.88,46.88 146.8,181.26l31.23 18.65 118.33 33.89 40.84 2.36 12 33.61 5.89 109.46c27.12,-25.29 49.21,-55.14 67.37,-88.08 -3.71,-47.86 -97.37,-187.54 -116.86,-256.97 37.07,21.11 66.52,51.87 115.57,77.22 44.52,23.02 83.5,39.14 137.56,46.97 46.33,-40.98 92.84,-107.17 89.31,-189.55l-4.67 -20.07c-92.25,68.28 -221.2,50.04 -329.81,8.06 -47.4,-18.32 -50.48,-10.74 -69.59,-56.8 -50.88,-122.67 -103.88,-255.71 -139.59,-386.1l-59.44 -213.58c110.89,61.73 189.69,149.87 372.78,188.47 81.35,17.15 62.08,2.24 66.19,-4.11 -43.12,-103.96 -53.29,-190.81 -219.75,-263.73 -134.64,-58.97 -238.92,-55.99 -279.19,-76.15 -40.43,-20.23 -45.37,-26.51 -93.47,-38.96 -127.87,-21.89 -136.67,81.66 -172.59,114.61z"/>
  <path class="fil9" d="M9803.29 13867.44l27.09 -3.91c36.02,-14.8 27.2,-6.02 60.32,-26.22 1.7,-1.04 3.63,-2.57 5.38,-3.55l23.91 -9.82c28.43,-12.25 -2.87,-0.91 30.43,-14.72 3.95,-31.89 26.75,-55.09 40.96,-82.69 14.68,-28.52 18.54,-70.71 35.28,-96.39 -5.08,-129.15 21.76,-77.98 48.32,-174.78 54.62,-199.2 -62.69,-394.23 -86.93,-534.08 -39.63,-228.56 -13.26,-596.3 5.94,-832.36 7.77,-9.47 -10.68,-13.37 12.93,-5.59 -12.88,-24.93 -7.73,-21.41 -15.77,-50.6 -58.17,-23.92 -119.12,-72.68 -178.62,-82.62 -98.81,126.55 -64.04,230.24 -58.87,434.81 4.04,160.2 13.21,326.71 16.39,489.72 6.5,331.78 21.6,662.64 33.23,992.81z"/>
  <path class="fil6" d="M7370.4 12408.16c-2.88,26.82 11.7,19.81 52.51,69.39 -20.1,25.3 -39.62,37.58 -59.5,65.7 -50.59,71.53 -95.66,189.35 -124.94,232.64 -81.43,-22.73 -218.72,-151.3 -243.03,-200.57l-102.45 46.6c20.84,28.8 33.58,60.82 52.38,89.6 20.91,32.04 32.76,49.07 56.03,78.93 126.56,162.39 144.76,88.11 181.91,164.63l174.6 317.54c76.34,-76.17 138.56,-186.43 263.75,-279.02 -16.98,-61.57 -78.81,-117.22 -98.18,-178.1 87.6,-140.34 97.84,-281.45 144.32,-330.98 2.11,-2.24 240,-249.51 163.93,-270.98 -39.07,13.72 -84.63,36.6 -122.54,52.69l-338.78 141.94z"/>
  <path class="fil10" d="M8461.52 10196.18c-41.67,43.45 -82.51,115.9 -72.12,200.56 9.71,79.07 88.97,131.95 152.61,142.29 -25.68,-99.71 -110.18,-164.43 -70.05,-317.07 1.47,1.35 3.84,1.41 4.49,3.99 0.64,2.56 3.63,3.08 4.51,3.89l358.21 325.67c23.58,15.83 45.63,19.55 59.79,51.59 34.49,-8.42 74.21,25.35 110.53,40.22 41.14,16.84 90,28.59 127.67,36.77 19.53,-6.87 7.39,-2.72 17.75,-16.83 -27.79,-36.17 -134.49,-299.76 -153.71,-351.3 -34.98,-93.79 -111.83,-297.08 -118.85,-399.52 -124.35,-9.23 -203.99,-15.48 -284.3,51.21 -86.46,71.79 -92.79,105.4 -136.55,228.52z"/>
  <path class="fil2" d="M7831.72 12213.54c76.07,21.47 -161.82,268.75 -163.93,270.98 -46.48,49.53 -56.72,190.64 -144.32,330.98 19.37,60.88 81.2,116.53 98.18,178.1l47.7 -30.57c40.32,28.77 135.43,174.64 184.25,214.45 27.12,-172.7 46.08,-348.85 68.15,-522.8 15.01,-118.32 37.93,-431.96 79.66,-513.92l-169.69 72.78z"/>
  <path class="fil11" d="M8968.41 12690.32c1.28,18.73 -2.72,-0.78 10.78,8.31 13.44,-88.87 36.9,-183.51 54.64,-270.25 55.83,-273.1 14.1,-195.23 214.44,-425.51 173.48,-199.4 166.4,-129.87 121.05,-379.58 -13.58,-74.8 -7.61,-45.86 2.16,-54.14l-4.33 -180.17c32.6,-187.6 171.21,-94.6 145.54,-423.21l-12 -33.61 -40.84 -2.36c-6.59,23.44 -17.78,48.48 -29.61,64.51 -21.91,29.72 -24.76,8.66 -32.71,53.76 -10.95,62.05 -5.63,87.77 -55.3,121.5l-0.71 -273.65 -31.23 -18.65c-6.98,235.48 64.2,647.91 -193.33,809.36 -130.53,81.83 -244.62,17.23 -283.65,19.66 44.05,142.86 223.82,80.33 289.08,113.07 31.21,15.67 76.51,62.69 79.89,117.24 4.89,78.94 -57.91,151.54 -109.7,190.06 -73.55,54.71 -57.4,60.05 -85.48,218.55l-48.04 254.22c-15.17,72.87 1.52,41.17 9.35,90.92z"/>
  <path class="fil8" d="M8292.46 10609.23c113.04,46.68 161.68,72.44 306.23,73.33 65.91,0.41 107.04,-3.62 168.18,-22.37 49.51,-15.18 90.86,-43.76 132.1,-53.09 -14.16,-32.04 -36.21,-35.76 -59.79,-51.59l-358.21 -325.67c-0.88,-0.81 -3.87,-1.33 -4.51,-3.89 -0.65,-2.58 -3.02,-2.64 -4.49,-3.99 -40.13,152.64 44.38,217.37 70.05,317.07 -63.64,-10.34 -142.9,-63.21 -152.61,-142.29 -10.4,-84.66 30.44,-157.11 72.12,-200.56 -194.57,42.91 -278.61,217.09 -169.06,413.05z"/>
  <path class="fil12" d="M9267.85 10209.89l50.17 61.57c19.34,24.51 35.92,40.03 54.5,63.76l117.12 119.02c90.17,73.87 172.58,145.62 338.51,118.36l-2.88 36.88c25.21,-68.51 -18.36,-199.08 -44.6,-251.31 -37.3,-74.23 -80.94,-132.08 -133.28,-177.5 -4.11,6.35 15.16,21.26 -66.19,4.11 -183.09,-38.6 -261.89,-126.74 -372.78,-188.47l59.44 213.58z"/>
  <path class="fil4" d="M9494.85 13446.49l24.24 -409.03 -358.64 -42.56 -19.17 406.87c54.02,8.93 108.25,28.12 167.77,37.53 48.13,7.6 166.9,1.11 185.8,7.18z"/>
  <path class="fil12" d="M8292.46 10609.23c-25.04,56.43 -81.88,121.95 -52.05,216.34 8.64,27.35 39.87,60.78 58.24,76.15 26.41,22.09 57.01,30.39 90.81,45.9 48.95,-36.61 112.73,-48.69 141.7,-93.75 0,47.57 0.63,71.27 6.6,107.53 5.84,35.56 -0.32,75.99 5.03,115.29l14.97 69.9 35.04 -341.12c5.57,-67.79 6.09,-47.64 39.71,-86.4 108.14,-2.49 369.43,47.92 520.87,-30.86l-16.18 -4.11c-37.67,-8.18 -86.52,-19.93 -127.67,-36.77 -36.32,-14.88 -76.05,-48.65 -110.53,-40.22 -41.24,9.33 -82.58,37.91 -132.1,53.09 -61.14,18.75 -102.27,22.78 -168.18,22.37 -144.55,-0.9 -193.2,-26.65 -306.23,-73.33z"/>
  <path class="fil13" d="M7986.62 13297.07c45.55,63.93 223.02,233.62 227.18,240.47 2.71,-64.54 -78.65,-838.75 -91.6,-973.57 -9.7,-100.98 -4.71,-238.93 -64.38,-299.48 -0.78,341.12 83.72,738.01 -71.2,1032.58z"/>
  <path class="fil6" d="M6800.26 12400.58c35.7,-3.97 51.07,-19.15 83.36,-26.83 35.79,5.64 27.86,65.06 92.93,-32 41.36,23.31 52.51,77.85 111.11,-6.57 11.83,-17.04 3.42,-7.37 15.62,-17.61 30.01,17.21 53.76,111.98 116.09,56.83l23.15 -28.67c1.18,-1.52 2.89,-3.75 4,-5.13l8.83 -10.19c44.64,22.75 78.55,20.57 93.17,-23.57 15.27,-46.08 -12.36,-84.12 -22.91,-116.93 -36.28,-31.78 -46.07,-83.02 -89.41,-90.1 -27.17,-4.44 -47.76,6.65 -61.34,18.64 -14.99,13.24 -29.49,32.29 -37.02,45.16 -66.04,-30.3 -109.3,-50.02 -126.26,45.9 -54.63,-11.62 -58.15,-11.84 -89.69,27.51 -122.21,-74.07 -118.6,155.34 -121.64,163.55z"/>
  <path class="fil14" d="M10396.87 10979.99l115.17 -40.09 -419.12 -683.53c-14.74,-24.71 -28.68,-43.57 -43.35,-66.12 -52.75,-81.1 -161.29,-276.06 -210.19,-337.49 -23.48,-3.81 -8.85,-3.31 -15.72,5.72l15.77 31.82 -127.22 20.99 12.3 65.73 154.58 -6.94 517.77 1009.91z"/>
  <path class="fil2" d="M5644.4 10212.28c69.63,31.51 258.44,12.47 303.72,-38.91l0.38 -257.26 -301.36 -2.99 -2.74 299.16z"/>
  <path class="fil15" d="M9950.43 13809.21c-42.94,109.45 -66.17,123.56 -53.75,205.51 12.55,82.84 20.76,167.54 30.33,248.85l94.7 0 11.71 -37.12c15.87,-44.96 30.59,-96.35 44.8,-143.3 22.17,-73.28 30.78,-68.01 13.01,-149.58 -19.67,-90.24 -53.33,-215.27 -64.56,-303.44 -16.74,25.69 -20.61,67.87 -35.28,96.39 -14.21,27.6 -37.01,50.8 -40.96,82.69z"/>
  <path class="fil16" d="M9811.51 10664.8c14.71,-6.27 12.35,-37.94 13.75,-55.32l2.88 -36.88c-165.93,27.26 -248.34,-44.48 -338.51,-118.36l-117.12 -119.02c-18.58,-23.73 -35.16,-39.26 -54.5,-63.76l-50.17 -61.57c35.71,130.39 88.71,263.44 139.59,386.1 19.11,46.06 22.19,38.48 69.59,56.8 108.62,41.98 237.56,60.22 329.81,-8.06l4.67 20.07z"/>
  <path class="fil11" d="M6995.44 12575.32c24.31,49.27 161.6,177.84 243.03,200.57 29.29,-43.29 74.35,-161.12 124.94,-232.64 19.89,-28.12 39.41,-40.4 59.5,-65.7 -40.8,-49.58 -55.39,-42.57 -52.51,-69.39 -35.14,16.38 -63.5,28.66 -95.84,41.25l-279.12 125.91z"/>
  <path class="fil3 str0" d="M13444.68 12714.11c57.85,-184.99 -225.53,-272.99 -284.15,-87.67 -58.99,186.49 224.85,277.28 284.15,87.67z"/>
  <path class="fil17" d="M7368.64 13441.54c5.18,46.53 93.9,160.91 122.6,201.92 3.23,4.62 9.24,12.56 14.24,18.92l232.26 300.76c37.81,52.98 41.69,59.93 65.79,65.58l23.89 22.68c42.08,49.57 40.32,66.89 78.49,54.33 4.88,-11.53 7.07,2.33 4.03,-18.22l-499.13 -683.93c-39.66,-55.34 -45.43,-78.5 -82.63,-93.76 0.74,73.17 33.73,83.17 40.46,131.72z"/>
  <path class="fil17" d="M9492.04 13470.34l2.81 -23.85c-18.9,-6.08 -137.68,0.42 -185.8,-7.18 -59.52,-9.41 -113.75,-28.6 -167.77,-37.53l19.17 -406.87 358.64 42.56 7.44 -113.06c-64.94,-6.63 -338.17,-38.49 -382.23,-27.93l-23.98 518.87c75.01,46.57 272.19,65.43 371.71,54.99z"/>
  <path class="fil2" d="M4007.84 11441.49c78.62,19.73 176.49,5.97 237.44,-30.56l0.46 -212.93 -239.52 -0.7c-8.9,41.41 -10.49,206.75 1.62,244.2z"/>
  <path class="fil2" d="M4642.45 10263.63c-130,-172.77 -329.36,-104.48 -336.78,50.94 -11.52,241.22 336.06,-50.05 336.78,-50.94z"/>
  <path class="fil1" d="M8689.27 11431.08c37.21,15.78 63.97,28.17 108.59,3.72 27.82,-15.25 56.41,-45.5 70.61,-71.43 72.76,-2.48 54.8,-8.61 102,24.47 24.73,17.33 55.4,33.92 87.99,47.31 89.97,36.96 145.46,35.68 203.89,-20.65 -76.73,56.43 -77.25,-25.63 -161.73,-89.28 -78.28,-58.98 -118.54,-31.05 -158.46,-8.47 -81.85,46.28 -98.85,-48.27 -158.24,-14.78 -51.57,29.07 -54.3,104.4 -55.69,107.32 -20.17,42.77 14,-3.33 -12.47,12.95 -17.77,10.94 2,-1.27 -13.15,4.56 -1.85,0.71 -5.13,1.58 -6.68,2.11 -1.55,0.54 -4.54,1.18 -6.66,2.17z"/>
  <path class="fil2" d="M4948.31 11463.72c-19.27,-43.44 -115.2,-81.68 -176.73,-84.17 -81.33,-3.3 -134.22,46.37 -140.37,119.51 -15.75,187.51 283.71,11.64 317.1,-35.34z"/>
  <path class="fil2" d="M5945.83 11596.77c56.5,4.63 206.08,-82.13 231.88,-116.16 -36.18,-44.35 -111.1,-113.59 -193.88,-71.98 -61.2,30.76 -105.08,132.22 -38.01,188.14z"/>
  <path class="fil12" d="M9585.94 10987.13l53.85 13.23c59.1,-47.61 53.05,-72.95 82.41,-146.01 -54.05,-7.83 -93.03,-23.95 -137.56,-46.97 -49.06,-25.36 -78.5,-56.11 -115.57,-77.22 19.49,69.43 113.15,209.11 116.86,256.97z"/>
  <path class="fil18" d="M8389.45 10947.61c15.11,44.28 8.27,74.62 40.3,102.06 25.67,21.99 68.26,30.51 113.02,27.01 -5.35,-39.31 0.81,-79.73 -5.03,-115.29 -5.97,-36.26 -6.6,-59.96 -6.6,-107.53 -28.97,45.06 -92.75,57.14 -141.7,93.75z"/>
  <path class="fil19" d="M9459.84 10929.78l-118.33 -33.89 0.71 273.65c49.67,-33.73 44.36,-59.45 55.3,-121.5 7.95,-45.09 10.8,-24.04 32.71,-53.76 11.82,-16.04 23.02,-41.07 29.61,-64.51z"/>
  <path class="fil1" d="M8656.6 10974.96c15.21,24.01 22.2,59.93 61.47,64.5 44.54,5.18 62.52,-26.04 66.1,-64.81 -45.97,-18.21 -86.52,-18.45 -127.57,0.31z"/>
  <path class="fil1" d="M9057.3 10984.83c26.58,16.07 22.56,58.43 73.04,54.99 45.79,-3.12 38.77,-37.61 65.06,-62.73 -54.12,-26.16 -91.89,-24.1 -138.1,7.73z"/>
  <path class="fil1" d="M11024.47 15609.24c16.31,88.02 88.89,134.61 190.61,135.04 153.9,0.65 916.24,4.51 1433.3,2.58l0 -337.6 -1188.23 0.08c-143.28,0 -482.74,-54.01 -435.69,199.89z"/>
  <path class="fil1" d="M3068.66 6751.09c-277.25,71.48 -244.2,473.83 76.76,475.9l2325.09 -0.08c104.12,0 374.52,12.41 458.07,-6.66 259.49,-59.18 259.15,-474.83 -77.92,-477.34l-2324.91 0.11c-99.51,0 -380.48,-11.69 -457.08,8.06z"/>
  <rect class="fil1 str1" x="7792.38" y="4200.13" width="4541.44" height="1714.47"/>
  <path class="fil20" d="M9699.01 5296.57c33.95,168.02 109.09,272.38 293.61,282.73 180.97,10.16 355.34,-80.37 314.93,-243.15 -49.13,-197.9 -561.87,-119.92 -764.06,-385.01 -176.64,-231.57 -71.41,-601.92 340.51,-650.41 375.96,-44.24 668.66,90.31 685.83,448.12l-298.32 6.72c-37.99,-88.23 -32.34,-132.94 -108.48,-178.51 -56.88,-34.04 -174.27,-40.59 -248.03,-27.08 -75.58,13.85 -155.81,51.4 -164.97,122.4 -23.46,181.82 342.99,190.74 574.27,283.74 133.22,53.58 243.48,145.3 276.99,298.06 42.41,193.33 -22.98,338.3 -122.16,435.68 -191.12,187.67 -670.96,196.18 -888.08,16.74 -101.79,-84.12 -191.96,-262.64 -180.72,-382.02l288.67 -28.01zm2476.79 -957.44c-39.15,20.53 -111.48,103.44 -141.11,134.98 -78.71,83.8 -86.37,97.59 -171.71,174.58 -12.56,11.33 -20.97,21.95 -32.93,34.71l-203.63 215.76 522.6 806.26c0.54,0.6 2.31,2.13 3.43,3.21 16.45,37.48 42.01,60.42 55.03,98.14l-372.97 0.19c-26.72,-15.24 -41.36,-51.28 -58.15,-80.78 -18.13,-31.87 -34.44,-58.39 -53.33,-90.21 -51.93,-87.44 -283.63,-499.33 -310.67,-523.21 -83.48,76.32 -142.86,166.31 -238.17,238.72l-0.29 452.95 -301.28 2.37 0 -1484.01 301.3 -1.84 0.21 651.39 525.69 -562.53c21.67,-20.18 58.2,-64.14 72.5,-87.79l358.27 -2.53c64.2,2.35 29.87,-0.55 45.19,19.64zm2081.86 1368.42c-22.23,-61.51 -210.44,-254.78 -266.53,-320.6l-188.8 -191.41c-35.46,-33.94 -59.42,-65.07 -96.92,-97.26l-417.43 -351.53c-69.15,-54.76 -146.25,-108.85 -221.15,-159.23 -76.06,-51.16 -148.37,-98.51 -229.46,-150.56 -68.6,-44.04 -166.42,-105.12 -241.78,-138.93 -110.76,-76.04 -455.84,-226.42 -595.3,-282.98 -1187.08,-481.55 -2517.26,-514.48 -3737.79,-128.01 -217.14,68.75 -434.9,155.76 -631.7,247.39 -167.38,77.94 -279.24,139.88 -431.93,226.65 -47.38,26.92 -98.02,63.32 -146.24,82.79 -4.54,9.25 -1.1,5.53 -16.44,15.7 -167.66,111.1 -274.32,174.95 -443.22,309.47 -65.88,52.47 -383.76,312.15 -432.24,370.46l-146.26 149.47c-17.87,18.5 -35.71,29.43 -53.02,48.1l-186.03 211.4c-77.98,97.75 -309.75,371.94 -348.68,457.24l9052.18 0 -13.84 -40.28 -11.5 -8.77c-1.13,-1.07 -174.48,-240.58 -195.93,-249.09zm-6262.55 99.34c-10.08,-38.37 -10.52,-1445.15 -0.13,-1486.21l296.34 1.52 0.22 648.62c22.13,-11.03 91.81,-89.72 121.89,-121.5l334.54 -366.99c47.28,-56.17 103.49,-102.46 142.02,-161.53l403.37 0.25c-11.86,26.73 -44.56,61.14 -68.22,80.96l-481.21 497.16c15.44,38.87 44.94,75.25 70.91,113.22l365.72 563.73c25.49,40.12 45.5,71.26 73.54,112.21 22.6,33 56.04,79.53 70.92,118.51l-371.47 0.12c-43.93,-11.37 -371.48,-647.89 -422.44,-692.15 -26.7,17.55 -235.49,232.14 -239.41,257.48l-3.24 434.42 -293.34 0.2z"/>
 </g>
</svg>
