<?xml version="1.0" encoding="UTF-8"?>
<!DOCTYPE svg PUBLIC "-//W3C//DTD SVG 1.1//EN" "http://www.w3.org/Graphics/SVG/1.1/DTD/svg11.dtd">
<!-- Creator: CorelDRAW 2021.5 (Evaluation Version) -->
<svg xmlns="http://www.w3.org/2000/svg" xml:space="preserve" width="200mm" height="200mm" version="1.1" style="shape-rendering:geometricPrecision; text-rendering:geometricPrecision; image-rendering:optimizeQuality; fill-rule:evenodd; clip-rule:evenodd"
viewBox="0 0 19943.52 19943.52"
 xmlns:xlink="http://www.w3.org/1999/xlink"
 xmlns:xodm="http://www.corel.com/coreldraw/odm/2003">
 <defs>
  <style type="text/css">
   <![CDATA[
    .fil1 {fill:#8AC9FE}
    .fil0 {fill:#FE76A8}
    .fil2 {fill:white}
   ]]>
  </style>
 </defs>
 <g id="Layer_x0020_1">
  <metadata id="CorelCorpID_0Corel-Layer"/>
  <g id="_2788781726368">
   <path class="fil0" d="M2650.23 44.74c-1334.91,164.45 -2350.46,1150.48 -2583.36,2415.55 -112.84,612.97 -48.73,1745.94 -48.73,2422.84l0 11203.48c0,389.63 -23.39,850.24 23.32,1231.08 160.7,1310.2 1171.61,2331.22 2416.23,2559.14 615.25,112.66 1744.53,48.47 2422.85,48.47l9951.78 0c495.16,0 2109.74,22.51 2481.84,-23.17 1313.34,-161.22 2326.63,-1169.82 2559.22,-2415.71 114.03,-610.79 48.39,-1749.79 48.71,-2423.48 0.4,-834.1 0.14,-1668.21 0.1,-2502.3l-0.06 -7450.03c-0.52,-733.19 61.51,-1786.75 -23.34,-2482.22 -159.78,-1309.56 -1172.25,-2331.65 -2416.18,-2559.2 -615.05,-112.52 -1744.72,-48.43 -2422.83,-48.43l-9951.78 0c-724.8,0 -1776.02,-60 -2457.77,23.98z"/>
   <path class="fil1" d="M18.14 9971.78l0 6114.83c0,389.63 -23.39,850.24 23.32,1231.08 160.7,1310.2 1171.61,2331.22 2416.23,2559.14 615.25,112.66 1744.53,48.47 2422.85,48.47l9951.78 0c495.16,0 2109.74,22.51 2481.84,-23.17 1313.34,-161.22 2326.63,-1169.82 2559.22,-2415.71 114.03,-610.79 48.39,-1749.79 48.71,-2423.48 0.4,-834.1 0.14,-1668.21 0.1,-2502.3l-0.02 -2588.87 -19904.03 0z"/>
   <path class="fil2" d="M8061.28 8317.47c-860.04,-56.67 -1453.99,211.07 -1833.65,671.38 -199.12,241.42 -345.25,458.39 -438.05,838.91 -74.05,303.61 -97.94,843.41 57.7,1110.73l9787.34 7.17c167.53,-797.94 -56.12,-1507.68 -764.89,-1890.95 -629.34,-340.33 -830.2,-27.14 -857.55,-330.22 -6.57,-72.71 -8.37,-143.7 -17.56,-219.15 -311.8,-2557.26 -3583.12,-3562.6 -5324.54,-1482.12 -328.74,392.76 -435.47,725.35 -608.8,1294.25z"/>
   <path class="fil2" d="M5790.41 8888.41c92.04,-88.46 77.26,-113.11 167.73,-197.09 74.72,-69.37 122.09,-113.76 188.39,-182.23 478.16,-493.86 1087.12,-534.02 1624.13,-617.47 61.72,-228.2 174.66,-474.61 281.24,-661.36 211.14,-369.94 303.48,-340.22 294.78,-640.99 -47.79,-1651.83 -1790.14,-2687.52 -3234.7,-1986.15 -759.55,368.8 -1470.51,1224.84 -1258.64,2446.42 77.38,446.22 339.03,939.61 647.23,1227.72 244,228.09 788.03,601.19 1289.84,611.15z"/>
   <path class="fil2" d="M11755.97 5565.58c215.15,122.44 1023.77,203.63 1758.12,1004.68 176.76,192.81 419.62,528.05 563.2,830.25 192.41,404.98 207.23,624.76 320.52,1065.46 134.09,67.05 400.14,108.9 579.72,196.05 568.22,275.79 839.27,679.3 1069.08,1319.2l2129.87 6.02c297.49,-562.53 -73.54,-1561.24 -790.81,-1913.24 -419.86,-206.05 -589.2,-121.55 -802.5,-194.92 -43.95,-1291.97 -759.99,-2139.9 -1587.34,-2590.21 -478.09,-260.21 -1114.69,-400.56 -1748.1,-331.3 -530.76,58.03 -1200.82,317.16 -1491.76,608z"/>
   <path class="fil2" d="M7362.63 15487.61c-157.87,122.77 -442.85,762.35 -511.64,1035 -108.59,430.43 81.98,979.23 474.78,1000.43 422.44,22.81 617.18,-569.37 518.76,-988.94 -111.8,-476.55 -352.16,-754.38 -481.9,-1046.49z"/>
   <path class="fil2" d="M13780.27 15496c-166.01,213.96 -423.18,738.21 -492.32,1033.2 -101.43,432.81 96.18,1019.64 521.1,994.13 391.65,-23.52 572.83,-573.54 471.27,-997.04 -60.34,-251.67 -368.28,-921.47 -500.05,-1030.3z"/>
   <path class="fil2" d="M10535.99 12197.29c-129.39,124.98 -416.95,798.17 -470.25,1026.58 -95.87,410.84 84.34,1018.16 471.7,1010.57 369.34,-7.23 547.25,-595.24 457.59,-994.67 -80.05,-356.68 -299.27,-769.9 -459.05,-1042.48z"/>
   <path class="fil2" d="M4565.91 8636.58l-480.83 -475.95 -1092.3 1089.84c-365.86,378.81 132.86,852.97 468.81,497.92 280.43,-296.37 948.89,-911.93 1104.31,-1111.81z"/>
   <path class="fil2" d="M5741.26 4170.01l682.3 -1.49c-2.9,-370.06 -0.37,-752.32 -0.36,-1133.68 0,-352.74 69.2,-796.99 -348.31,-789.52 -416.2,7.43 -333.74,450.27 -333.73,789.52 0,378.38 0.11,756.78 0.11,1135.17z"/>
   <path class="fil2" d="M3612.23 6991.44l-13.41 -681.84c-372.56,4.93 -755.02,0.92 -1135.15,0.91 -372.29,0 -782.12,-82.32 -784.63,335.97 -2.52,422.12 439.11,343.61 784.63,343.72 380.87,0.13 768.63,-7.18 1148.56,1.25z"/>
   <path class="fil2" d="M4074.48 5140.15l452.21 -439.35c33.38,-34.83 17.03,-10.96 38.69,-45.16 -246.14,-213.31 -492.53,-484.38 -726.91,-720.66 -314.49,-317.02 -580.21,-703.5 -876.65,-402 -138.73,141.09 -105.89,371.92 10.32,500.75 117.56,130.31 245.58,241.85 371.55,367.27 246.54,245.49 504.75,487.51 730.79,739.15z"/>
   <path class="fil2" d="M7593.95 4659.92c62.74,88.66 166.36,139.78 247.7,219.38 91.24,89.28 126.68,166.64 223.46,252.3 136.41,-88.37 246.02,-239.44 369.52,-362.32l740.03 -739.18c349.6,-363.7 -120.9,-806.26 -479.89,-479.7l-1100.82 1109.53z"/>
   <g>
    <path class="fil2" d="M6759.29 12505.56c-115.91,-61.64 -117.07,-134.94 -229.6,-172.75 -42.53,49.19 -4,13.44 -59.68,57.22 23.02,132.33 57.67,90.14 167.18,228.09 -107.38,10.84 -226.03,-8.24 -304.57,27.83l37.41 105.91c204.75,58.3 340.3,-50.83 473.67,63.52 61.81,53.02 248.62,245.66 303.2,325.59 -169.14,-0.33 -432.56,42.65 -548.78,-50.9 -106.08,-85.39 -170.6,-223.21 -295.9,-267.78l-78.4 76.71c65.53,122.5 115.94,96.37 195.91,242.57l-269.6 2.57 -3.31 135.19 270.17 8.45c-66.12,115.3 -139.13,130.48 -194.78,244.15l72.33 79.8c133.85,-60.79 187.78,-185.21 301.29,-275.3 141.59,-112.39 390.62,2.74 524.1,-72.54 41.03,-74.8 2.17,-50.89 33.15,-127.87 27.13,-67.41 51.3,-72.18 85.81,-120.42 -387.78,-476.95 -311.39,-61.15 -339.44,-821.79 -189.03,-1.16 -136.95,-29.21 -140.15,311.75z"/>
    <path class="fil2" d="M6957.2 14232.47l90.27 105.67 224.26 -208.91c17.87,105.42 -17.19,203.95 48.98,284.9l85.41 -4.76c32.31,-76.57 18.98,-175.6 18.25,-274.25 96.99,69.13 185.92,173.08 269.66,193.24l47.36 -63.33c-57.07,-130.94 -213.97,-205.93 -280.5,-310.02 -87.65,-137.15 9.25,-390.85 -54.87,-534.66l-122.35 -5.98c-23.6,744.8 21.35,393.99 -326.47,818.09z"/>
    <path class="fil2" d="M6327.58 13698.06l5.93 85.44 300.2 17.9c-67.16,90.15 -151.41,131.29 -174.51,223.09l61.57 76.71c122.28,-58.79 120.72,-119.07 239.17,-185.02l3.05 309.27 129.38 3.49c25.72,-189.06 -31.45,-422.49 60.05,-534.27 92.05,-112.44 222.1,-172.19 292.49,-313.35 -90.48,-58 -85.13,-85.17 -194.09,10.75 -410.1,360.98 -76.96,233.89 -579.9,263.24l-143.35 42.74z"/>
    <path class="fil2" d="M7445.2 13408.44c79.91,116.61 183.16,183.61 279.67,288.45 114.34,124.21 51.95,325.57 71.88,526.47l135.98 0.25 2.25 -291.74c124.2,74.36 111.73,111.55 215.43,168.09l80.08 -66.55c-31.01,-132.34 -76.34,-64.12 -170.3,-233.13l297.86 -3.76 5.15 -116.56c-169.66,-59.54 -391.66,24.35 -508.07,-56.17 -72.47,-50.14 -222.64,-224.89 -301.83,-299.9l-108.1 84.55z"/>
    <path class="fil2" d="M7451.04 13015.61l96.15 92.07c68.91,-72.98 244.74,-266.69 303.71,-305.38 114.46,-75.04 275.88,-19.42 388.39,-31.8 206.27,-22.7 76.5,33.32 123.99,-67.68 13.24,-121.45 -36.98,-75.26 -308.66,-77.93 44.61,-86.89 26.36,-52.9 94.1,-123.41 58.83,-61.22 51.73,-33.67 89.84,-117 -95.6,-64.36 -53.62,-94.56 -161.87,-15.38 -59.54,43.55 -66.75,87.35 -144.11,132.58l0.17 -310.83 -123.59 5.35c-65.9,147.89 45.53,388.47 -69.44,521.77l-288.67 297.62z"/>
    <path class="fil2" d="M7277.05 12290.08c-91.27,-41.48 -56.51,-20.36 -130.56,-92.65 -39.8,-38.85 -67.46,-72.28 -104.99,-107.32l-86.19 65.31c73.9,135.49 200.96,191.91 278.47,297.91 84.3,115.26 33.08,375.7 48.72,547.93l125.2 8.67c85.79,-597.63 -214.18,-256.54 335.56,-823.21l-98.94 -110.34 -218.75 217.48c-11.66,-97.51 10.59,-203.65 -42.88,-282.07 -120.79,8.7 -109.77,-61.6 -105.64,278.29z"/>
    <path class="fil2" d="M7564.57 13141.11l-7.02 146.01c628.57,-6.42 442.48,-51.79 820.33,317.95l89.51 -75.74c-68.57,-109.26 -148.35,-122.82 -194.58,-245.81l275.93 0.05 -3.6 -125.86 -267.93 -18.08c83.75,-120.38 140.21,-121.59 191.3,-237.76l-66.2 -80.41c-128,54.17 -183.02,179.92 -292.77,267.32 -113.76,90.59 -305.82,52.61 -544.96,52.33z"/>
   </g>
   <g>
    <path class="fil2" d="M13202.1 12505.56c-115.91,-61.64 -117.07,-134.94 -229.6,-172.75 -42.52,49.19 -4,13.44 -59.67,57.22 23.01,132.33 57.66,90.14 167.17,228.09 -107.38,10.84 -226.02,-8.24 -304.57,27.83l37.41 105.91c204.75,58.3 340.3,-50.83 473.67,63.52 61.81,53.02 248.63,245.66 303.2,325.59 -169.13,-0.33 -432.56,42.65 -548.78,-50.9 -106.08,-85.39 -170.6,-223.21 -295.9,-267.78l-78.39 76.71c65.52,122.5 115.93,96.37 195.9,242.57l-269.59 2.57 -3.32 135.19 270.17 8.45c-66.12,115.3 -139.13,130.48 -194.78,244.15l72.33 79.8c133.85,-60.79 187.78,-185.21 301.3,-275.3 141.59,-112.39 390.61,2.74 524.09,-72.54 41.03,-74.8 2.17,-50.89 33.15,-127.87 27.13,-67.41 51.3,-72.18 85.81,-120.42 -387.78,-476.95 -311.39,-61.15 -339.44,-821.79 -189.03,-1.16 -136.95,-29.21 -140.15,311.75z"/>
    <path class="fil2" d="M13400.01 14232.47l90.27 105.67 224.26 -208.91c17.88,105.42 -17.18,203.95 48.98,284.9l85.41 -4.76c32.31,-76.57 18.99,-175.6 18.25,-274.25 96.99,69.13 185.92,173.08 269.66,193.24l47.36 -63.33c-57.06,-130.94 -213.97,-205.93 -280.5,-310.02 -87.65,-137.15 9.25,-390.85 -54.86,-534.66l-122.36 -5.98c-23.6,744.8 21.35,393.99 -326.47,818.09z"/>
    <path class="fil2" d="M12770.4 13698.06l5.92 85.44 300.21 17.9c-67.17,90.15 -151.42,131.29 -174.51,223.09l61.56 76.71c122.28,-58.79 120.72,-119.07 239.17,-185.02l3.05 309.27 129.39 3.49c25.71,-189.06 -31.45,-422.49 60.04,-534.27 92.06,-112.44 222.1,-172.19 292.5,-313.35 -90.49,-58 -85.13,-85.17 -194.1,10.75 -410.1,360.98 -76.96,233.89 -579.9,263.24l-143.34 42.74z"/>
    <path class="fil2" d="M13888.01 13408.44c79.91,116.61 183.16,183.61 279.67,288.45 114.34,124.21 51.95,325.57 71.88,526.47l135.99 0.25 2.24 -291.74c124.2,74.36 111.73,111.55 215.43,168.09l80.09 -66.55c-31.02,-132.34 -76.35,-64.12 -170.31,-233.13l297.86 -3.76 5.15 -116.56c-169.65,-59.54 -391.66,24.35 -508.06,-56.17 -72.48,-50.14 -222.65,-224.89 -301.84,-299.9l-108.1 84.55z"/>
    <path class="fil2" d="M13893.86 13015.61l96.15 92.07c68.9,-72.98 244.73,-266.69 303.7,-305.38 114.46,-75.04 275.88,-19.42 388.39,-31.8 206.27,-22.7 76.51,33.32 123.99,-67.68 13.24,-121.45 -36.97,-75.26 -308.66,-77.93 44.61,-86.89 26.36,-52.9 94.11,-123.41 58.82,-61.22 51.72,-33.67 89.83,-117 -95.6,-64.36 -53.62,-94.56 -161.87,-15.38 -59.54,43.55 -66.75,87.35 -144.11,132.58l0.17 -310.83 -123.59 5.35c-65.9,147.89 45.53,388.47 -69.44,521.77l-288.66 297.62z"/>
    <path class="fil2" d="M13719.87 12290.08c-91.27,-41.48 -56.51,-20.36 -130.56,-92.65 -39.8,-38.85 -67.45,-72.28 -104.99,-107.32l-86.18 65.31c73.9,135.49 200.95,191.91 278.46,297.91 84.3,115.26 33.08,375.7 48.73,547.93l125.19 8.67c85.79,-597.63 -214.18,-256.54 335.56,-823.21l-98.94 -110.34 -218.75 217.48c-11.66,-97.51 10.59,-203.65 -42.88,-282.07 -120.79,8.7 -109.77,-61.6 -105.64,278.29z"/>
    <path class="fil2" d="M14007.38 13141.11l-7.02 146.01c628.57,-6.42 442.48,-51.79 820.33,317.95l89.51 -75.74c-68.56,-109.26 -148.35,-122.82 -194.58,-245.81l275.93 0.05 -3.6 -125.86 -267.93 -18.08c83.75,-120.38 140.21,-121.59 191.3,-237.76l-66.2 -80.41c-127.99,54.17 -183.02,179.92 -292.77,267.32 -113.76,90.59 -305.82,52.61 -544.96,52.33z"/>
   </g>
   <g>
    <path class="fil2" d="M9850.49 15886.12c-115.92,-61.64 -117.07,-134.94 -229.6,-172.75 -42.53,49.19 -4,13.44 -59.68,57.23 23.02,132.32 57.67,90.13 167.18,228.08 -107.38,10.84 -226.03,-8.24 -304.57,27.83l37.41 105.91c204.75,58.3 340.3,-50.83 473.66,63.52 61.82,53.02 248.63,245.66 303.21,325.59 -169.14,-0.33 -432.56,42.65 -548.78,-50.9 -106.09,-85.39 -170.6,-223.21 -295.9,-267.78l-78.4 76.71c65.53,122.5 115.94,96.37 195.9,242.57l-269.59 2.57 -3.31 135.19 270.16 8.45c-66.12,115.3 -139.12,130.48 -194.77,244.15l72.33 79.8c133.84,-60.79 187.77,-185.21 301.29,-275.3 141.59,-112.39 390.62,2.74 524.1,-72.54 41.03,-74.8 2.17,-50.89 33.15,-127.87 27.13,-67.41 51.3,-72.18 85.81,-120.42 -387.79,-476.95 -311.39,-61.15 -339.45,-821.79 -189.02,-1.16 -136.94,-29.21 -140.14,311.75z"/>
    <path class="fil2" d="M10048.4 17613.03l90.27 105.67 224.25 -208.91c17.88,105.42 -17.18,203.96 48.98,284.9l85.42 -4.76c32.31,-76.56 18.98,-175.6 18.25,-274.25 96.99,69.13 185.92,173.09 269.65,193.24l47.37 -63.33c-57.07,-130.94 -213.97,-205.93 -280.5,-310.01 -87.65,-137.16 9.25,-390.86 -54.87,-534.67l-122.35 -5.98c-23.6,744.8 21.35,393.99 -326.47,818.09z"/>
    <path class="fil2" d="M9418.79 17078.61l5.93 85.44 300.2 17.9c-67.16,90.15 -151.41,131.29 -174.51,223.09l61.57 76.71c122.28,-58.79 120.71,-119.07 239.17,-185.02l3.05 309.27 129.38 3.49c25.72,-189.05 -31.45,-422.48 60.05,-534.26 92.05,-112.45 222.1,-172.2 292.49,-313.36 -90.48,-58 -85.13,-85.16 -194.09,10.75 -410.11,360.98 -76.96,233.89 -579.91,263.24l-143.34 42.74z"/>
    <path class="fil2" d="M10536.39 16788.99c79.91,116.61 183.16,183.61 279.68,288.45 114.34,124.21 51.95,325.57 71.88,526.47l135.98 0.25 2.25 -291.74c124.19,74.36 111.73,111.55 215.42,168.09l80.09 -66.55c-31.01,-132.34 -76.35,-64.12 -170.3,-233.13l297.86 -3.76 5.15 -116.56c-169.66,-59.54 -391.66,24.36 -508.07,-56.17 -72.47,-50.14 -222.64,-224.89 -301.83,-299.9l-108.11 84.55z"/>
    <path class="fil2" d="M10542.24 16396.17l96.15 92.07c68.91,-72.98 244.74,-266.69 303.71,-305.37 114.45,-75.05 275.87,-19.43 388.39,-31.81 206.27,-22.7 76.5,33.32 123.99,-67.68 13.24,-121.45 -36.98,-75.26 -308.66,-77.93 44.61,-86.89 26.36,-52.9 94.1,-123.41 58.83,-61.22 51.73,-33.67 89.83,-117 -95.6,-64.36 -53.61,-94.56 -161.86,-15.38 -59.54,43.55 -66.75,87.35 -144.11,132.58l0.17 -310.83 -123.59 5.35c-65.91,147.89 45.53,388.47 -69.44,521.77l-288.67 297.62z"/>
    <path class="fil2" d="M10368.26 15670.64c-91.27,-41.48 -56.52,-20.35 -130.56,-92.64 -39.81,-38.86 -67.46,-72.29 -105,-107.32l-86.18 65.3c73.9,135.49 200.96,191.91 278.47,297.91 84.3,115.26 33.07,375.7 48.72,547.93l125.19 8.67c85.8,-597.63 -214.17,-256.54 335.57,-823.21l-98.94 -110.34 -218.75 217.48c-11.67,-97.51 10.58,-203.65 -42.88,-282.07 -120.8,8.7 -109.77,-61.6 -105.64,278.29z"/>
    <path class="fil2" d="M10655.77 16521.67l-7.02 146.01c628.57,-6.42 442.48,-51.79 820.33,317.95l89.5 -75.74c-68.56,-109.26 -148.35,-122.82 -194.57,-245.81l275.92 0.05 -3.59 -125.86 -267.94 -18.08c83.76,-120.38 140.22,-121.59 191.31,-237.76l-66.2 -80.41c-128,54.17 -183.02,179.92 -292.77,267.32 -113.76,90.59 -305.82,52.61 -544.96,52.33z"/>
   </g>
  </g>
 </g>
</svg>
