<?xml version="1.0" encoding="UTF-8"?>
<!DOCTYPE svg PUBLIC "-//W3C//DTD SVG 1.1//EN" "http://www.w3.org/Graphics/SVG/1.1/DTD/svg11.dtd">
<!-- Creator: CorelDRAW 2021.5 (Evaluation Version) -->
<svg xmlns="http://www.w3.org/2000/svg" xml:space="preserve" width="150mm" height="150mm" version="1.1" style="shape-rendering:geometricPrecision; text-rendering:geometricPrecision; image-rendering:optimizeQuality; fill-rule:evenodd; clip-rule:evenodd"
viewBox="0 0 14945.37 14945.36"
 xmlns:xlink="http://www.w3.org/1999/xlink"
 xmlns:xodm="http://www.corel.com/coreldraw/odm/2003">
 <defs>
  <style type="text/css">
   <![CDATA[
    .fil7 {fill:black}
    .fil4 {fill:black}
    .fil1 {fill:#8AC9FE}
    .fil0 {fill:#FE76A8}
    .fil2 {fill:white}
    .fil6 {fill:white}
    .fil5 {fill:black;fill-rule:nonzero}
    .fil3 {fill:black;fill-rule:nonzero}
   ]]>
  </style>
 </defs>
 <g id="Layer_x0020_1">
  <metadata id="CorelCorpID_0Corel-Layer"/>
  <g id="_1783371086096">
   <path class="fil0" d="M1986.05 33.53c-1000.35,123.24 -1761.4,862.16 -1935.93,1810.18 -84.56,459.35 -36.52,1308.38 -36.52,1815.64l0 8395.71c0,291.98 -17.52,637.16 17.48,922.55 120.43,981.85 877.98,1746.98 1810.68,1917.78 461.06,84.43 1307.32,36.33 1815.65,36.33l7457.7 0c371.06,0 1581,16.87 1859.85,-17.37 984.2,-120.82 1743.54,-876.64 1917.84,-1810.29 85.45,-457.71 36.27,-1311.27 36.5,-1816.12 0.3,-625.06 0.11,-1250.13 0.08,-1875.19l-0.05 -5582.93c-0.39,-549.44 46.1,-1338.97 -17.49,-1860.13 -119.73,-981.37 -878.46,-1747.3 -1810.64,-1917.83 -460.9,-84.32 -1307.47,-36.29 -1815.63,-36.29l-7457.7 0c-543.15,0 -1330.92,-44.97 -1841.82,17.97z"/>
   <path class="fil1" d="M13.6 7472.7l0 4582.36c0,291.98 -17.52,637.16 17.48,922.55 120.43,981.85 877.98,1746.98 1810.68,1917.78 461.06,84.43 1307.32,36.33 1815.65,36.33l7457.7 0c371.06,0 1581,16.87 1859.85,-17.37 984.2,-120.82 1743.54,-876.64 1917.84,-1810.29 85.45,-457.71 36.27,-1311.27 36.5,-1816.12 0.3,-625.06 0.11,-1250.13 0.08,-1875.19l-0.01 -1940.05 -14915.77 0z"/>
   <g>
    <g>
     <path class="fil2" d="M6299.26 7305.97c-526.15,-34.67 -889.52,129.13 -1121.78,410.74 -121.82,147.69 -211.22,280.43 -267.99,513.23 -45.31,185.74 -59.93,515.98 35.3,679.52l5987.69 4.39c102.48,-488.17 -34.34,-922.37 -467.95,-1156.84 -385.02,-208.21 -507.9,-16.61 -524.63,-202.03 -4.02,-44.49 -5.12,-87.91 -10.74,-134.07 -190.75,-1564.47 -2192.08,-2179.52 -3257.44,-906.73 -201.11,240.28 -266.41,443.75 -372.45,791.8z"/>
     <path class="fil2" d="M4909.99 7655.25c56.31,-54.12 47.26,-69.2 102.62,-120.59 45.71,-42.43 74.69,-69.59 115.25,-111.48 292.52,-302.14 665.08,-326.7 993.6,-377.75 37.76,-139.61 106.85,-290.35 172.06,-404.6 129.17,-226.33 185.66,-208.14 180.34,-392.15 -29.24,-1010.55 -1095.17,-1644.16 -1978.92,-1215.08 -464.67,225.62 -899.63,749.34 -770,1496.67 47.34,272.99 207.41,574.83 395.96,751.1 149.27,139.54 482.09,367.79 789.09,373.89z"/>
     <path class="fil2" d="M8559.6 5622.41c131.62,74.91 626.32,124.58 1075.58,614.64 108.14,117.96 256.72,323.06 344.55,507.94 117.71,247.76 126.79,382.21 196.09,651.82 82.04,41.02 244.8,66.63 354.67,119.95 347.62,168.72 513.44,415.58 654.04,807.06l1303 3.68c182,-344.14 -44.99,-955.13 -483.8,-1170.48 -256.86,-126.05 -360.46,-74.35 -490.95,-119.24 -26.89,-790.4 -464.94,-1309.15 -971.1,-1584.64 -292.48,-159.19 -681.94,-245.05 -1069.44,-202.68 -324.71,35.5 -734.64,194.03 -912.63,371.96z"/>
     <path class="fil2" d="M4160.87 7501.19l-294.15 -291.17 -668.25 666.74c-223.82,231.75 81.29,521.83 286.81,304.62 171.56,-181.31 580.51,-557.9 675.59,-680.18z"/>
     <path class="fil2" d="M4879.92 4768.63l417.42 -0.91c-1.77,-226.4 -0.23,-460.26 -0.22,-693.56 0,-215.81 42.34,-487.59 -213.09,-483.02 -254.62,4.54 -204.18,275.46 -204.18,483.02 0,231.48 0.07,462.98 0.07,694.46z"/>
     <path class="fil2" d="M3577.43 6494.73l-8.21 -417.14c-227.93,3.02 -461.91,0.57 -694.45,0.56 -227.76,0 -478.48,-50.36 -480.02,205.54 -1.55,258.25 268.64,210.21 480.02,210.28 233,0.08 470.23,-4.4 702.66,0.76z"/>
     <path class="fil2" d="M3860.22 5362.15l276.65 -268.78c20.43,-21.31 10.42,-6.7 23.68,-27.63 -150.59,-130.5 -301.32,-296.33 -444.71,-440.88 -192.4,-193.95 -354.96,-430.39 -536.32,-245.93 -84.86,86.31 -64.78,227.52 6.32,306.34 71.92,79.72 150.24,147.95 227.3,224.69 150.83,150.19 308.8,298.25 447.08,452.19z"/>
     <path class="fil2" d="M6013.36 5068.35c38.38,54.25 101.78,85.52 151.54,134.21 55.82,54.62 77.5,101.94 136.7,154.35 83.46,-54.06 150.52,-146.48 226.07,-221.66l452.73 -452.21c213.88,-222.5 -73.96,-493.25 -293.58,-293.47l-673.46 678.78z"/>
    </g>
    <g>
     <path class="fil3" d="M4408.17 10650.04l-54.99 -30.82 0 0 7.96 -9 8 -8.78 8.06 -8.57 8.16 -8.38 8.27 -8.18 8.41 -7.99 8.53 -7.78 8.69 -7.58 8.89 -7.41 9.07 -7.19 9.28 -7.01 9.51 -6.81 9.74 -6.62 9.99 -6.41 10.26 -6.22 10.53 -6.04 10.83 -5.83 11.11 -5.63 11.43 -5.45 11.76 -5.26 12.08 -5.07 12.44 -4.89 12.81 -4.7 13.15 -4.52 13.54 -4.35 13.95 -4.19 14.33 -4.01 14.79 -3.87 15.25 -3.7 15.67 -3.55 16.15 -3.41 16.65 -3.28 15.43 52.37 -15.56 3.05 -15.03 3.18 -14.49 3.28 -13.95 3.39 -13.46 3.52 -13 3.65 -12.53 3.74 -12.07 3.89 -11.67 4 -11.24 4.14 -10.86 4.27 -10.5 4.4 -10.15 4.54 -9.85 4.7 -9.55 4.84 -9.25 4.99 -9.01 5.15 -8.78 5.33 -8.56 5.51 -8.37 5.67 -8.18 5.86 -8.04 6.07 -7.9 6.27 -7.77 6.48 -7.69 6.71 -7.61 6.91 -7.52 7.16 -7.46 7.39 -7.44 7.65 -7.43 7.88 -7.41 8.14 -7.42 8.38 0 0zm0 0c-10.61,12.17 -31.54,15.14 -46.71,6.63 -15.18,-8.51 -18.88,-25.29 -8.27,-37.46l54.99 30.82zm169.69 591.78l-32.08 47.25 0 0 -27.19 -12.67 -26.01 -13.73 -24.77 -14.74 -23.52 -15.67 -22.27 -16.58 -20.98 -17.41 -19.68 -18.2 -18.36 -18.92 -17.04 -19.61 -15.71 -20.23 -14.33 -20.82 -12.98 -21.33 -11.59 -21.81 -10.19 -22.24 -8.79 -22.6 -7.36 -22.95 -5.92 -23.21 -4.47 -23.43 -3.01 -23.62 -1.51 -23.74 -0.03 -23.82 1.49 -23.86 3.03 -23.82 4.56 -23.75 6.13 -23.63 7.71 -23.45 9.3 -23.22 10.92 -22.94 12.53 -22.6 14.17 -22.22 15.82 -21.77 17.46 -21.25 54.99 30.82 -15.44 18.81 -13.96 19.2 -12.49 19.6 -11.06 19.95 -9.62 20.22 -8.2 20.48 -6.82 20.71 -5.4 20.87 -4.04 20.99 -2.68 21.08 -1.32 21.1 0.03 21.08 1.34 21.04 2.66 20.94 3.96 20.77 5.25 20.57 6.53 20.33 7.78 20.04 9.02 19.69 10.26 19.29 11.48 18.88 12.67 18.39 13.86 17.86 15.03 17.29 16.18 16.68 17.33 16.02 18.46 15.32 19.59 14.57 20.69 13.78 21.79 12.96 22.87 12.07 23.96 11.17 0 0zm0 0c16.27,7.1 22.28,23.43 13.42,36.48 -8.85,13.05 -29.23,17.87 -45.5,10.77l32.08 -47.25zm477.15 55.59l0 53.79 0.02 0 -18.93 0.05 -18.48 0.12 -18.05 0.16 -17.67 0.18 -17.27 0.19 -16.94 0.19 -16.65 0.15 -16.34 0.11 -16.09 0.05 -15.86 -0.04 -15.67 -0.14 -15.48 -0.28 -15.3 -0.41 -15.21 -0.58 -15.12 -0.77 -15.01 -0.98 -14.97 -1.21 -14.93 -1.46 -14.92 -1.73 -14.91 -2.03 -14.92 -2.32 -14.97 -2.66 -15.02 -3.02 -15.1 -3.38 -15.17 -3.77 -15.29 -4.17 -15.4 -4.59 -15.56 -5.02 -15.71 -5.48 -15.89 -5.95 -16.09 -6.41 -16.33 -6.92 32.08 -47.25 14.88 6.31 14.6 5.83 14.31 5.35 14.07 4.9 13.86 4.48 13.67 4.07 13.52 3.68 13.41 3.33 13.31 2.99 13.25 2.65 13.25 2.35 13.26 2.07 13.31 1.8 13.36 1.55 13.48 1.32 13.64 1.09 13.79 0.91 13.98 0.71 14.21 0.54 14.48 0.4 14.73 0.26 15.03 0.14 15.34 0.04 15.7 -0.05 16.09 -0.11 16.44 -0.15 16.87 -0.19 17.31 -0.19 17.76 -0.18 18.23 -0.16 18.75 -0.12 19.26 -0.05 0.02 0zm-0.02 0c18.52,-0.01 33.55,12.03 33.56,26.88 0.01,14.85 -15.01,26.91 -33.52,26.92l-0.04 -53.79zm5662.53 53.79l-5662.51 0 0 -53.79 5662.51 0 0 0 0 53.79zm0 -53.79c18.52,0 33.54,12.05 33.54,26.9 0,14.85 -15.02,26.9 -33.54,26.9l0 -53.79zm1117.42 -9.95l15.29 52.38 0 0 -20.48 3.36 -22.9 2.92 -25.28 2.53 -27.54 2.2 -29.72 1.9 -31.75 1.61 -33.62 1.36 -35.33 1.1 -36.87 0.88 -38.26 0.68 -39.44 0.48 -40.49 0.3 -41.32 0.14 -42.02 -0.01 -42.52 -0.14 -42.83 -0.26 -42.97 -0.37 -42.93 -0.44 -42.73 -0.52 -42.32 -0.57 -41.77 -0.62 -41 -0.65 -40.07 -0.65 -38.96 -0.65 -37.66 -0.64 -36.16 -0.59 -34.53 -0.54 -32.68 -0.48 -30.65 -0.4 -28.45 -0.31 -26.03 -0.19 -23.42 -0.07 0 -53.79 23.87 0.07 26.36 0.19 28.66 0.31 30.82 0.4 32.8 0.48 34.59 0.54 36.22 0.59 37.68 0.64 38.92 0.65 40.03 0.65 40.94 0.65 41.67 0.62 42.22 0.57 42.6 0.52 42.78 0.44 42.8 0.37 42.62 0.26 42.27 0.14 41.73 0.01 41.01 -0.14 40.11 -0.3 39.04 -0.48 37.76 -0.66 36.31 -0.88 34.66 -1.08 32.81 -1.32 30.76 -1.55 28.53 -1.82 26.08 -2.08 23.35 -2.33 20.38 -2.59 17.07 -2.8 0 0zm0 0c18.03,-3.38 36.1,5.59 40.31,20.06 4.21,14.47 -6.98,28.94 -25.02,32.33l-15.29 -52.38zm145.36 -765.81l35.55 -45.63 0 0 42.43 22.98 39.03 24.62 35.61 26.12 32.22 27.48 28.87 28.71 25.52 29.79 22.2 30.73 18.94 31.53 15.68 32.19 12.48 32.7 9.34 33.07 6.22 33.3 3.16 33.41 0.15 33.37 -2.8 33.19 -5.72 32.89 -8.59 32.47 -11.4 31.89 -14.18 31.22 -16.89 30.38 -19.58 29.43 -22.21 28.35 -24.79 27.14 -27.35 25.77 -29.84 24.29 -32.3 22.66 -34.68 20.91 -37.01 18.99 -39.3 16.96 -41.51 14.78 -43.64 12.47 -45.7 10.04 -15.29 -52.38 40.9 -8.98 38.87 -11.12 36.86 -13.13 34.82 -15.03 32.75 -16.81 30.67 -18.48 28.54 -20.04 26.39 -21.48 24.19 -22.8 21.94 -23.99 19.66 -25.11 17.34 -26.08 14.98 -26.93 12.56 -27.67 10.11 -28.27 7.61 -28.77 5.06 -29.13 2.49 -29.37 -0.14 -29.51 -2.8 -29.51 -5.49 -29.4 -8.24 -29.17 -11.01 -28.84 -13.83 -28.39 -16.7 -27.82 -19.63 -27.17 -22.6 -26.39 -25.63 -25.51 -28.75 -24.5 -31.91 -23.4 -35.15 -22.17 -38.48 -20.84 0 0zm0 0c-15.71,-7.87 -20.48,-24.48 -10.68,-37.07 9.81,-12.59 30.51,-16.43 46.22,-8.56l-35.55 45.63zm-481.1 -53.72l0 -53.79 -0.01 0 16.9 -0.04 16.91 -0.09 16.91 -0.12 16.91 -0.14 16.92 -0.14 16.89 -0.13 16.88 -0.09 16.85 -0.04 16.82 0.03 16.78 0.12 16.75 0.21 16.7 0.35 16.64 0.48 16.58 0.64 16.54 0.81 16.47 1.02 16.36 1.22 16.31 1.46 16.24 1.73 16.12 1.99 16.02 2.29 15.91 2.59 15.83 2.93 15.68 3.29 15.55 3.65 15.42 4.07 15.27 4.47 15.1 4.92 14.9 5.36 14.74 5.83 14.52 6.35 14.28 6.84 -35.55 45.63 -11.99 -5.74 -12.19 -5.32 -12.42 -4.93 -12.66 -4.55 -12.88 -4.2 -13.11 -3.84 -13.34 -3.51 -13.58 -3.19 -13.79 -2.9 -13.99 -2.58 -14.25 -2.32 -14.44 -2.05 -14.66 -1.81 -14.83 -1.57 -15.03 -1.34 -15.24 -1.15 -15.39 -0.95 -15.56 -0.77 -15.75 -0.6 -15.9 -0.46 -16.03 -0.33 -16.17 -0.21 -16.32 -0.12 -16.43 -0.03 -16.56 0.04 -16.66 0.09 -16.77 0.13 -16.86 0.14 -16.96 0.14 -17.04 0.12 -17.1 0.09 -17.19 0.04 -0.01 0zm0.01 0c-18.52,0 -33.55,-12.04 -33.55,-26.89 0,-14.85 15.02,-26.91 33.53,-26.91l0.02 53.79zm-5662.51 -53.79l5662.5 0 0 53.79 -5662.5 0 0 0 0 -53.79zm0 53.79c-18.52,0 -33.54,-12.05 -33.54,-26.9 0,-14.85 15.02,-26.9 33.54,-26.9l0 53.79zm-1108.78 11.99l-15.43 -52.37 0 0 20.96 -3.49 23.25 -3.06 25.5 -2.67 27.68 -2.33 29.69 -2.01 31.6 -1.74 33.4 -1.47 35 -1.21 36.45 -0.98 37.76 -0.77 38.89 -0.56 39.88 -0.38 40.69 -0.21 41.32 -0.06 41.81 0.08 42.11 0.19 42.26 0.31 42.24 0.4 42.04 0.47 41.68 0.53 41.15 0.58 40.44 0.61 39.59 0.62 38.54 0.62 37.34 0.61 35.94 0.58 34.4 0.52 32.68 0.46 30.77 0.4 28.69 0.3 26.44 0.18 24.02 0.07 0 53.79 -24.43 -0.07 -26.77 -0.18 -28.92 -0.3 -30.95 -0.4 -32.78 -0.46 -34.48 -0.52 -35.98 -0.58 -37.34 -0.61 -38.52 -0.62 -39.53 -0.62 -40.38 -0.61 -41.05 -0.58 -41.56 -0.53 -41.9 -0.47 -42.07 -0.4 -42.07 -0.31 -41.88 -0.19 -41.55 -0.08 -41.03 0.06 -40.34 0.21 -39.49 0.38 -38.45 0.56 -37.24 0.75 -35.86 0.96 -34.3 1.19 -32.55 1.43 -30.62 1.68 -28.5 1.93 -26.15 2.2 -23.59 2.48 -20.8 2.73 -17.7 2.95 0 0zm0 0c-18.02,3.41 -36.11,-5.54 -40.36,-19.99 -4.25,-14.46 6.9,-28.96 24.93,-32.37l15.43 52.37z"/>
    </g>
    <path class="fil0" d="M8500.21 11181.88l7.85 -599.71c-406.95,-22.94 -1950.32,-1.76 -2428.52,-1.76 -159.84,0 -1333.37,-18.81 -1433.63,16.72 -109.8,38.93 -201.54,138.92 -200.23,286.88 1.34,150.99 83.08,232.84 193.83,278.88 100.71,41.85 1276.64,19.6 1440.03,19.6 321.09,0 642.19,0 963.26,0 312.19,0 1150.3,15.07 1457.41,-0.6z"/>
    <path class="fil4" d="M3732.67 9646.44c-42.51,10.05 -80.28,30.16 -115.85,44.97 -28.19,-14.68 -92.74,-90.08 -121.39,-116.69 -57.99,-53.85 -121.83,37.53 -147.85,63.29 -42.74,42.33 -115.29,93.61 -73.96,146.72 14.48,18.59 104.63,106.79 122.83,120.57 -4.14,17.01 -37.5,97.14 -48.49,120.6 -48.93,7.22 -149.33,-5.62 -186.78,5.34 -52.46,15.35 -38.55,89.62 -38.55,150.92 0,59.01 -13.94,134.72 39.01,150.05 38.23,11.05 137,-2.54 186.32,5.29 10.17,21.57 45.16,104.36 48.98,121.21 -15.44,9.5 -106.23,99.16 -121.29,117.37 -45.13,54.59 24,95.56 70.58,145.49 45.61,48.88 93.44,113.55 145.28,70.23 38.34,-32.04 85.71,-96.72 125.29,-120.52 28.06,11.18 81.83,32.55 113.47,48.58 7.01,47.99 -5.51,149.32 5.88,185.83 16.87,54.06 87.98,39.32 149.5,39.32 60.53,0 134.8,13.75 150.45,-38.57 10.33,-34.54 -0.57,-139.79 5.13,-186.59 11.38,-6.92 109.96,-46.09 119.24,-48.11 19.9,22.11 35.81,36.95 60.03,59.75 104.28,98.16 75.21,126.96 265.41,-68.51 18.58,-19.09 37.12,-54.72 10.44,-87.69 -13.93,-17.21 -106.33,-108.27 -120.91,-117.05l48.86 -120.05c50.8,-9.61 142.25,5.67 185.2,-6.35 54.86,-15.36 39.73,-87.36 39.82,-149.7 0.09,-61.71 15.01,-136.52 -39.03,-151.16 -28.77,-7.79 -148.62,-2.28 -188.7,-3.25 -10.7,-46.69 -36.66,-84.83 -45.62,-120.47l119.76 -118.96c48.3,-56.73 -39.54,-119.26 -65.43,-144.93 -21.25,-21.04 -38.35,-39.39 -59.46,-59.78 -18.3,-17.7 -52.63,-41.39 -87.98,-14.25l-121.01 122.4c-36.26,-8.03 -74.6,-36.14 -122.69,-45.6 0,-243.57 24.51,-227.38 -153.49,-227.38 -62.2,0 -135.26,-14.48 -150.06,39.48 -7.53,27.47 -2.94,150.99 -2.94,188.16z"/>
    <path class="fil2" d="M3824.71 9826.74c-178.26,31.59 -331.92,200.18 -294.09,417.55 30.61,175.88 202.22,329.42 417.11,292.78 175.36,-29.9 332.58,-203.09 293.64,-417.95 -32.02,-176.68 -200.62,-330.68 -416.67,-292.39z"/>
    <path class="fil0" d="M2667.37 9369.5l378.8 1.68c-20.98,50.72 -314.6,281.72 -315.4,834.9 -0.26,265.04 113.88,532.43 234.95,686.95 130.14,166.11 294.2,308.17 531.79,394.1 368.52,133.31 776.61,64.21 1081.53,-172.68 52.27,-40.61 212.98,-189.12 225.41,-239.23 -27.52,-16.02 -54.77,-31.77 -84.64,-36.47 -11.38,19.86 -42.24,56.86 -60.3,75.43 -176.14,181.1 -354.86,294.25 -630.72,336.49 -244.67,37.46 -480.73,-21.02 -680.85,-136.46 -540.95,-312.04 -705.99,-1075.2 -298.36,-1600.95 19.87,-25.61 48.67,-66 71.35,-75.22l4.02 10.22c0.35,1.45 1.18,3.52 1.54,5.34 0.37,1.86 0.75,3.47 1.07,5.58 7.02,46.53 -11.42,349.05 7.58,379.13 3.88,6.14 -11.24,20.24 39.57,-32.55 28.99,-30.12 22.65,-22.27 22.65,-71.67l-0.47 -427.37 -446.77 -2.3c-37.53,1.72 -63.39,40.45 -82.76,65.08z"/>
    <path class="fil0" d="M3447.11 9093.46c3.55,32.48 27.13,53.54 40.61,82 45.47,-8.38 91.53,-28.92 138.26,-40.91 151.59,-38.87 327.94,-44.65 479.1,-8.39 460.23,110.39 793.52,484.51 832.36,960.76 5.5,67.34 7.13,277.89 -24.19,320.58l-105.52 -167.63c-31.2,-52.92 -68.57,-118.26 -103.58,-169.32 -10.86,13.24 -18.21,44.21 -21.64,66.7 -6.03,39.51 72.51,145.55 96.3,185.48 24.14,40.52 127.2,217.74 146.39,237.34 31.97,-11.42 86.21,-50.32 116.84,-69.62 39.05,-24.58 273.82,-160.06 284.9,-187.62 5.44,-13.54 14.81,-60.63 15.68,-77.35 -67.58,29.6 -247.08,164.54 -333.54,206.56 0.08,-90.85 38.32,-169.05 19.24,-359.43 -50.83,-507.01 -398.39,-920.71 -904.02,-1037.25 -171.08,-39.43 -355.31,-32.85 -526.77,10.24 -53.52,13.45 -102.72,35.71 -150.42,47.87z"/>
    <path class="fil0" d="M3637.19 10334.73l44.66 -11.92c38.31,43.36 41.27,60.08 94.6,88.24 160.11,84.55 331.97,-23.22 356.61,-136.69l-55.71 -17.47c-29.96,34.04 -51.36,98.9 -144.55,116.05 -76.06,14.01 -157.87,-24.3 -182.85,-71.27 16.01,-10.36 13.69,-3.24 28.03,-18.52 -27.76,-23.29 -86.15,-87.48 -114.33,-97.45 -5.19,36.12 -31.15,117.78 -26.45,149.02z"/>
    <path class="fil0" d="M3659.64 10091.82l51.55 27.86c21.97,-28.02 27.23,-52.87 52.19,-77.74 79.49,-79.23 213.09,-67.21 266.53,2.83 -10,10.39 -5.55,4.19 -13.91,10.54 -1.05,0.8 -2.57,1.76 -3.65,2.61 -1.11,0.87 -2.57,1.92 -3.65,2.8 -8.99,7.39 -3.75,1.35 -10.45,9.74 40.7,25.83 81.94,62.09 123.95,85.94l15.07 -153.49 -41.88 13.42c-55.19,-59.8 -135.86,-114.75 -255.08,-88.28 -75.86,16.84 -167.15,89.13 -180.68,163.77z"/>
    <path class="fil5" d="M6178.74 9794.73l91.63 0 0 245.16c0,38.97 1.16,64.13 3.37,75.62 3.9,18.54 13.06,33.48 27.59,44.65 14.64,11.26 34.54,16.85 59.82,16.85 25.58,0 44.97,-5.27 58.03,-15.9 13.06,-10.64 20.85,-23.59 23.48,-39.07 2.63,-15.48 4,-41.07 4,-76.88l0 -250.43 91.62 0 0 237.9c0,54.33 -2.42,92.77 -7.37,115.2 -4.95,22.43 -14,41.39 -27.27,56.87 -13.16,15.48 -30.86,27.7 -52.97,36.86 -22.22,9.16 -51.07,13.8 -86.77,13.8 -43.08,0 -75.72,-4.95 -97.94,-14.96 -22.22,-10 -39.81,-22.95 -52.76,-38.96 -12.95,-16.01 -21.38,-32.65 -25.49,-50.23 -6,-25.91 -8.95,-64.25 -8.95,-114.9l0 -241.59z"/>
    <path id="_1" class="fil5" d="M6980.43 10247.14l0 -452.42 146.49 0c55.5,0 91.63,2.21 108.47,6.74 25.9,6.85 47.6,21.58 65.08,44.33 17.48,22.75 26.23,52.13 26.23,88.14 0,27.8 -5.06,51.08 -15.06,70.03 -10.11,18.96 -22.86,33.81 -38.33,44.65 -15.48,10.74 -31.27,17.91 -47.28,21.38 -21.8,4.32 -53.29,6.53 -94.57,6.53l-59.4 0 0 170.61 -91.63 0zm91.63 -375.96l0 128.9 49.81 0c35.91,0 59.81,-2.42 71.92,-7.16 12.11,-4.74 21.59,-12.11 28.44,-22.33 6.85,-10.12 10.32,-21.8 10.32,-35.29 0,-16.53 -4.84,-30.12 -14.43,-40.86 -9.69,-10.73 -21.8,-17.47 -36.65,-20.21 -10.85,-2.01 -32.65,-3.06 -65.51,-3.06l-43.91 0z"/>
    <path id="_2" class="fil5" d="M7747.28 9794.73l166.61 0c37.59,0 66.24,2.84 85.94,8.63 26.43,7.8 49.17,21.7 68.03,41.71 18.96,19.9 33.28,44.33 43.18,73.29 9.8,28.85 14.75,64.56 14.75,106.89 0,37.28 -4.63,69.3 -13.9,96.25 -11.27,32.96 -27.39,59.61 -48.34,79.94 -15.8,15.48 -37.18,27.48 -64.02,36.12 -20.12,6.42 -46.97,9.59 -80.67,9.59l-171.55 0 0 -452.42zm91.63 76.46l0 299.51 67.92 0c25.38,0 43.71,-1.48 54.97,-4.32 14.85,-3.68 27.07,-10 36.76,-18.84 9.79,-8.85 17.69,-23.39 23.8,-43.6 6.21,-20.22 9.26,-47.92 9.26,-82.89 0,-34.96 -3.05,-61.71 -9.26,-80.46 -6.11,-18.74 -14.75,-33.27 -25.81,-43.8 -11.06,-10.42 -25.06,-17.59 -42.12,-21.27 -12.63,-2.84 -37.59,-4.32 -74.66,-4.32l-40.86 0z"/>
    <path id="_3" class="fil5" d="M8956.52 10247.14l-98.67 0 -39.07 -103 -181.46 0 -37.59 103 -96.89 0 175.66 -452.42 96.77 0 181.24 452.42zm-167.44 -179.45l-62.87 -167.44 -61.08 167.44 123.95 0z"/>
    <polygon id="_4" class="fil5" points="9405.53,10247.14 9405.53,9871.18 9271.57,9871.18 9271.57,9794.73 9630.47,9794.73 9630.47,9871.18 9497.15,9871.18 9497.15,10247.14 "/>
    <polygon id="_5" class="fil5" points="10035.14,10247.14 10035.14,9794.73 10370.03,9794.73 10370.03,9871.18 10126.77,9871.18 10126.77,9971.65 10352.97,9971.65 10352.97,10048.11 10126.77,10048.11 10126.77,10170.69 10378.88,10170.69 10378.88,10247.14 "/>
    <rect class="fil0" x="8560.76" y="10582.16" width="469.51" height="603.79"/>
    <rect class="fil0" x="9097.14" y="10582.16" width="234.75" height="603.79"/>
    <rect class="fil0" x="9408" y="10582.16" width="117.37" height="603.79"/>
    <rect class="fil0" x="9572.56" y="10582.16" width="117.37" height="603.79"/>
    <rect class="fil0" x="9737.13" y="10582.16" width="75.08" height="603.79"/>
   </g>
   <g>
    <path class="fil6" d="M10529.29 4410.65c0,158.6 -3.75,181.13 37.09,345.81 15.23,61.39 46.5,147.15 72.8,194.07 16.27,29.02 27.44,59.19 45.55,87.88 17.87,28.29 34.36,54.73 53.41,80.02l58.84 74.6c23.17,28.7 41.28,45.8 67.35,71.87 48.58,48.59 88.84,80.75 144.72,122.15 14.07,10.42 23.44,15.42 39.09,24.74 17.78,10.59 26.45,16.65 42.7,26.92 85.4,53.94 191.88,88.37 289.2,116.91 156.1,45.79 374.3,42.29 533.43,7.15 201.81,-44.57 297.13,-114.05 447.89,-213.48 14.1,-9.3 26.76,-15.19 36.01,-27.8l-738.23 -741.16c22.88,-15.8 124.52,-129.06 134.87,-129.06 17.13,0 163.06,78.61 291.56,-50.74 139.37,-140.27 85.79,-348.43 -63.18,-421.31 -109.63,-53.65 -221.34,-30.28 -308.2,55.73 -46.53,46.07 -71.02,101.24 -71.02,184.25 0,38.78 15.69,72.14 23.21,104.42l-132.02 134.86 -736.76 -739.66c-45.37,34.53 -150.91,229.04 -181.14,297.47 -43.09,97.53 -87.17,254.84 -87.17,394.35z"/>
    <path class="fil7" d="M10598.91 6052.47l-348.09 0 0 174.04 1566.4 0 0 -174.04 -359.69 0c0,-81.53 -34.81,-230.63 -34.81,-313.28 -150.69,-35.11 -259.9,-68.28 -381.2,-135.14 -55.92,-30.83 -107.05,-61.54 -156.76,-98.51l-72.12 -55.52c-25.36,-20.46 -38.79,-50.6 -74.51,-58.92 0,39.34 -101.56,534.14 -118.97,629.42 -3.27,17.85 -0.49,31.95 -20.26,31.95z"/>
    <path class="fil6" d="M11904.24 3430.2l170.57 20.88c51.32,11.88 108.46,28.69 148.61,48.63 43.44,21.58 87.79,42.58 125.96,71.31 95.83,72.12 122.57,98.64 194.73,193.96 84.14,111.17 131.05,260.56 137.59,401.96 1.21,26.09 5.19,21.06 5.76,46.45l174.04 0c0,-259.84 -98.81,-496.21 -279.92,-677.33 -76.59,-76.58 -160.65,-140.62 -265.34,-187.18 -144.25,-64.14 -241.36,-92.74 -411.99,-92.74l0 174.05z"/>
    <path class="fil6" d="M11904.24 3778.28c172.71,0 320.36,104.97 394.6,255.16 23.47,47.49 39.34,127.14 40.51,179.95l174.04 0c0,-112.36 -16.27,-170.24 -57.82,-261.25 -54.69,-119.76 -167.87,-235.27 -286.05,-288.3 -95.85,-43.02 -148.88,-59.61 -265.28,-59.61l0 174.04z"/>
   </g>
  </g>
 </g>
</svg>
