<?xml version="1.0" encoding="UTF-8"?>
<!DOCTYPE svg PUBLIC "-//W3C//DTD SVG 1.1//EN" "http://www.w3.org/Graphics/SVG/1.1/DTD/svg11.dtd">
<!-- Creator: CorelDRAW 2021.5 (Evaluation Version) -->
<svg xmlns="http://www.w3.org/2000/svg" xml:space="preserve" width="202.192mm" height="203.14mm" version="1.1" style="shape-rendering:geometricPrecision; text-rendering:geometricPrecision; image-rendering:optimizeQuality; fill-rule:evenodd; clip-rule:evenodd"
viewBox="0 0 20219.18 20314.02"
 xmlns:xlink="http://www.w3.org/1999/xlink"
 xmlns:xodm="http://www.corel.com/coreldraw/odm/2003">
 <defs>
  <style type="text/css">
   <![CDATA[
    .str0 {stroke:black;stroke-width:352.78;stroke-miterlimit:22.9256}
    .fil3 {fill:none}
    .fil1 {fill:#8AC9FE}
    .fil0 {fill:#F4B359}
    .fil2 {fill:white}
   ]]>
  </style>
 </defs>
 <g id="Layer_x0020_1">
  <metadata id="CorelCorpID_0Corel-Layer"/>
  <g id="_2788781726368">
   <path class="fil0" d="M2727.03 201.33c-1338.7,164.92 -2357.12,1153.75 -2590.68,2422.39 -113.16,614.71 -48.87,1750.88 -48.87,2429.7l0 11235.23c0,390.73 -23.46,852.65 23.39,1234.57 161.16,1313.92 1174.93,2337.82 2423.07,2566.4 616.99,112.98 1749.47,48.61 2429.71,48.61l9979.97 0c496.56,0 2115.71,22.57 2488.88,-23.24 1317.06,-161.68 2333.22,-1173.13 2566.48,-2422.55 114.35,-612.52 48.53,-1754.75 48.85,-2430.34 0.4,-836.46 0.14,-1672.93 0.1,-2509.39l-0.06 -7471.14c-0.52,-735.27 61.68,-1791.81 -23.41,-2489.25 -160.23,-1313.27 -1175.57,-2338.25 -2423.02,-2566.46 -616.79,-112.84 -1749.66,-48.57 -2429.69,-48.57l-9979.97 0c-726.85,0 -1781.05,-60.17 -2464.73,24.05l-0.02 0z"/>
   <path class="fil1" d="M87.48 10156.5l0 6132.16c0,390.73 -23.46,852.65 23.39,1234.57 161.16,1313.92 1174.93,2337.82 2423.07,2566.4 616.99,112.98 1749.47,48.61 2429.71,48.61l9979.97 0c496.56,0 2115.71,22.57 2488.88,-23.24 1317.06,-161.68 2333.22,-1173.13 2566.48,-2422.55 114.35,-612.52 48.53,-1754.75 48.85,-2430.34 0.4,-836.46 0.14,-1672.93 0.1,-2509.39l-0.02 -2596.21 -19960.43 0 -0.01 -0.01z"/>
   <path class="fil2" d="M8153.41 8497.5c-862.48,-56.83 -1458.11,211.67 -1838.85,673.28 -199.68,242.1 -346.24,459.69 -439.29,841.3 -74.26,304.47 -98.22,845.8 57.86,1113.89l9815.07 7.19c168,-800.2 -56.28,-1511.95 -767.06,-1896.32 -631.12,-341.3 -832.55,-27.22 -859.98,-331.16 -6.59,-72.92 -8.39,-144.11 -17.61,-219.77 -312.68,-2564.5 -3593.27,-3572.69 -5339.63,-1486.33 -329.67,393.87 -436.7,727.4 -610.52,1297.92l0.01 0z"/>
   <path class="fil2" d="M5876.11 9070.05c92.3,-88.71 77.48,-113.43 168.21,-197.65 74.93,-69.57 122.44,-114.08 188.92,-182.75 479.51,-495.26 1090.2,-535.53 1628.74,-619.22 61.89,-228.85 175.15,-475.95 282.04,-663.23 211.74,-370.99 304.34,-341.18 295.61,-642.81 -47.93,-1656.52 -1795.21,-2695.13 -3243.87,-1991.77 -761.7,369.84 -1474.67,1228.31 -1262.2,2453.35 77.6,447.48 339.99,942.27 649.06,1231.21 244.69,228.75 790.26,602.89 1293.49,612.88l0 -0.01z"/>
   <path class="fil2" d="M11858.58 5737.8c215.76,122.79 1026.67,204.21 1763.1,1007.53 177.26,193.36 420.81,529.55 564.79,832.6 192.95,406.13 207.82,626.53 321.43,1068.48 134.47,67.24 401.28,109.21 581.36,196.61 569.83,276.57 841.65,681.23 1072.11,1322.94l2135.9 6.04c298.33,-564.12 -73.76,-1565.66 -793.05,-1918.67 -421.05,-206.63 -590.87,-121.89 -804.77,-195.47 -44.07,-1295.63 -762.14,-2145.96 -1591.84,-2597.55 -479.44,-260.95 -1117.85,-401.69 -1753.05,-332.24 -532.26,58.19 -1204.22,318.06 -1495.98,609.72l0 0.01z"/>
   <path class="fil2" d="M7452.78 15687.96c-158.32,123.12 -444.1,764.51 -513.09,1037.93 -108.9,431.65 82.21,982 476.12,1003.26 423.64,22.87 618.93,-570.98 520.23,-991.74 -112.12,-477.9 -353.16,-756.52 -483.26,-1049.45z"/>
   <path class="fil2" d="M13888.62 15696.37c-166.48,214.57 -424.38,740.3 -493.71,1036.13 -101.72,434.04 96.45,1022.53 522.58,996.95 392.76,-23.59 574.45,-575.16 472.6,-999.86 -60.51,-252.38 -369.32,-924.08 -501.47,-1033.22z"/>
   <path class="fil2" d="M10635.14 12388.32c-129.76,125.33 -418.13,800.43 -471.58,1029.49 -96.14,412 84.58,1021.04 473.04,1013.43 370.39,-7.25 548.81,-596.93 458.89,-997.49 -80.28,-357.69 -300.12,-772.08 -460.35,-1045.43z"/>
   <path class="fil2" d="M4648.13 8817.51l-482.19 -477.3 -1095.39 1092.93c-366.9,379.88 133.24,855.39 470.14,499.33 281.22,-297.21 951.58,-914.51 1107.44,-1114.96z"/>
   <path class="fil2" d="M5826.82 4338.28l684.23 -1.49c-2.91,-371.11 -0.37,-754.45 -0.36,-1136.89 0,-353.75 69.4,-799.25 -349.3,-791.76 -417.38,7.45 -334.69,451.55 -334.68,791.76 0,379.45 0.11,758.92 0.11,1138.38z"/>
   <path class="fil2" d="M3691.76 7167.7l-13.45 -683.78c-373.62,4.94 -757.16,0.92 -1138.36,0.91 -373.34,0 -784.33,-82.55 -786.85,336.92 -2.53,423.32 440.35,344.58 786.85,344.69 381.95,0.13 770.81,-7.2 1151.81,1.25l0 0.01z"/>
   <path class="fil2" d="M4155.31 5311.18l453.49 -440.59c33.47,-34.93 17.08,-10.99 38.8,-45.29 -246.84,-213.91 -493.92,-485.75 -728.97,-722.7 -315.38,-317.92 -581.85,-705.49 -879.13,-403.14 -139.12,141.49 -106.19,372.97 10.35,502.17 117.89,130.68 246.29,242.53 372.6,368.31 247.24,246.19 506.18,488.89 732.86,741.25l0 -0.01z"/>
   <path class="fil2" d="M7684.76 4829.59c62.92,88.91 166.83,140.18 248.4,220 91.5,89.53 127.04,167.11 224.09,253.01 136.8,-88.62 246.72,-240.12 370.57,-363.35l742.13 -741.28c350.59,-364.73 -121.24,-808.54 -481.26,-481.06l-1103.95 1112.67 0.02 0.01z"/>
   <g>
    <path class="fil2" d="M6847.73 12697.46c-116.24,-61.81 -117.4,-135.32 -230.25,-173.24 -42.65,49.33 -4.01,13.48 -59.85,57.38 23.09,132.7 57.83,90.4 167.65,228.75 -107.68,10.87 -226.67,-8.26 -305.43,27.91l37.52 106.21c205.33,58.47 341.27,-50.97 475.01,63.7 61.99,53.17 249.32,246.36 304.06,326.51 -169.62,-0.33 -433.8,42.77 -550.33,-51.04 -106.38,-85.63 -171.08,-223.84 -296.74,-268.54l-78.62 76.93c65.72,122.85 116.27,96.64 196.46,243.26l-270.36 2.58 -3.32 135.57 270.94 8.47c-66.31,115.63 -139.52,130.85 -195.33,244.84l72.53 80.03c134.23,-60.96 188.31,-185.73 302.14,-276.08 141.99,-112.71 391.73,2.75 525.58,-72.75 41.15,-75.01 2.18,-51.03 33.24,-128.23 27.21,-67.6 51.45,-72.38 86.05,-120.76 -388.88,-478.3 -312.27,-61.32 -340.4,-824.12 -189.57,-1.16 -137.34,-29.29 -140.55,312.63l0 -0.01z"/>
    <path class="fil2" d="M7046.2 14429.26l90.53 105.97 224.9 -209.5c17.92,105.72 -17.24,204.53 49.12,285.71l85.65 -4.77c32.4,-76.79 19.03,-176.1 18.3,-275.03 97.26,69.33 186.45,173.57 270.42,193.79l47.49 -63.51c-57.23,-131.31 -214.58,-206.51 -281.3,-310.9 -87.9,-137.54 9.28,-391.96 -55.03,-536.17l-122.7 -6c-23.67,746.91 21.41,395.11 -327.39,820.41l0.01 0z"/>
    <path class="fil2" d="M6414.8 13893.34l5.95 85.68 301.05 17.95c-67.35,90.41 -151.84,131.66 -175,223.72l61.74 76.93c122.63,-58.96 121.06,-119.41 239.85,-185.54l3.06 310.15 129.75 3.5c25.79,-189.6 -31.54,-423.69 60.22,-535.78 92.31,-112.76 222.73,-172.68 293.32,-314.24 -90.74,-58.16 -85.37,-85.41 -194.64,10.78 -411.27,362 -77.18,234.55 -581.54,263.99l-143.77 42.86 0.01 0z"/>
    <path class="fil2" d="M7535.57 13602.9c80.14,116.94 183.68,184.13 280.46,289.27 114.66,124.56 52.1,326.49 72.08,527.96l136.37 0.25 2.26 -292.57c124.55,74.57 112.05,111.87 216.04,168.57l80.31 -66.74c-31.1,-132.71 -76.56,-64.3 -170.78,-233.8l298.7 -3.77 5.16 -116.89c-170.14,-59.71 -392.77,24.42 -509.51,-56.33 -72.68,-50.28 -223.27,-225.53 -302.68,-300.75l-108.41 84.79 0 0.01z"/>
    <path class="fil2" d="M7541.44 13208.95l96.42 92.33c69.11,-73.19 245.43,-267.45 304.57,-306.25 114.78,-75.25 276.66,-19.47 389.49,-31.89 206.85,-22.76 76.72,33.41 124.34,-67.87 13.28,-121.79 -37.08,-75.47 -309.53,-78.15 44.74,-87.14 26.43,-53.05 94.37,-123.77 59,-61.39 51.88,-33.77 90.09,-117.33 -95.87,-64.54 -53.77,-94.83 -162.33,-15.42 -59.71,43.67 -66.94,87.6 -144.52,132.96l0.17 -311.71 -123.94 5.37c-66.09,148.31 45.66,389.57 -69.64,523.25l-289.49 298.46 0 0.02z"/>
    <path class="fil2" d="M7366.96 12481.37c-91.53,-41.6 -56.67,-20.42 -130.93,-92.91 -39.91,-38.96 -67.65,-72.48 -105.29,-107.62l-86.43 65.49c74.11,135.87 201.53,192.45 279.26,298.76 84.54,115.59 33.17,376.76 48.86,549.48l125.55 8.69c86.03,-599.32 -214.79,-257.27 336.51,-825.54l-99.22 -110.65 -219.37 218.1c-11.69,-97.79 10.62,-204.23 -43,-282.87 -121.13,8.72 -110.08,-61.77 -105.94,279.08l0 -0.01z"/>
    <path class="fil2" d="M7655.29 13334.81l-7.04 146.42c630.35,-6.44 443.74,-51.94 822.65,318.85l89.76 -75.95c-68.76,-109.57 -148.78,-123.17 -195.13,-246.51l276.71 0.05 -3.61 -126.22 -268.69 -18.13c83.99,-120.72 140.61,-121.93 191.84,-238.43l-66.39 -80.64c-128.36,54.32 -183.54,180.43 -293.6,268.08 -114.08,90.85 -306.69,52.76 -546.5,52.48z"/>
   </g>
   <g>
    <path class="fil2" d="M13308.81 12697.46c-116.24,-61.81 -117.4,-135.32 -230.25,-173.24 -42.64,49.33 -4.01,13.48 -59.84,57.38 23.08,132.7 57.82,90.4 167.64,228.75 -107.68,10.87 -226.66,-8.26 -305.43,27.91l37.52 106.21c205.33,58.47 341.27,-50.97 475.01,63.7 61.99,53.17 249.33,246.36 304.06,326.51 -169.61,-0.33 -433.8,42.77 -550.33,-51.04 -106.38,-85.63 -171.08,-223.84 -296.74,-268.54l-78.61 76.93c65.71,122.85 116.27,96.64 196.45,243.26l-270.35 2.58 -3.33 135.57 270.94 8.47c-66.31,115.63 -139.52,130.85 -195.33,244.84l72.53 80.03c134.23,-60.96 188.31,-185.73 302.15,-276.08 141.99,-112.71 391.72,2.75 525.57,-72.75 41.15,-75.01 2.18,-51.03 33.24,-128.23 27.21,-67.6 51.45,-72.38 86.05,-120.76 -388.88,-478.3 -312.27,-61.32 -340.4,-824.12 -189.57,-1.16 -137.34,-29.29 -140.55,312.63l0 -0.01z"/>
    <path class="fil2" d="M13507.27 14429.26l90.53 105.97 224.9 -209.5c17.93,105.72 -17.23,204.53 49.12,285.71l85.65 -4.77c32.4,-76.79 19.04,-176.1 18.3,-275.03 97.26,69.33 186.45,173.57 270.42,193.79l47.49 -63.51c-57.22,-131.31 -214.58,-206.51 -281.3,-310.9 -87.9,-137.54 9.28,-391.96 -55.02,-536.17l-122.71 -6c-23.67,746.91 21.41,395.11 -327.39,820.41l0.01 0z"/>
    <path class="fil2" d="M12875.89 13893.34l5.94 85.68 301.06 17.95c-67.36,90.41 -151.85,131.66 -175,223.72l61.73 76.93c122.63,-58.96 121.06,-119.41 239.85,-185.54l3.06 310.15 129.76 3.5c25.78,-189.6 -31.54,-423.69 60.21,-535.78 92.32,-112.76 222.73,-172.68 293.33,-314.24 -90.75,-58.16 -85.37,-85.41 -194.65,10.78 -411.27,362 -77.18,234.55 -581.54,263.99l-143.76 42.86 0.01 0z"/>
    <path class="fil2" d="M13996.66 13602.9c80.14,116.94 183.68,184.13 280.46,289.27 114.66,124.56 52.1,326.49 72.08,527.96l136.38 0.25 2.25 -292.57c124.55,74.57 112.05,111.87 216.04,168.57l80.32 -66.74c-31.11,-132.71 -76.57,-64.3 -170.79,-233.8l298.7 -3.77 5.16 -116.89c-170.13,-59.71 -392.77,24.42 -509.5,-56.33 -72.69,-50.28 -223.28,-225.53 -302.69,-300.75l-108.41 84.79 0 0.01z"/>
    <path class="fil2" d="M14002.52 13208.95l96.42 92.33c69.1,-73.19 245.42,-267.45 304.56,-306.25 114.78,-75.25 276.66,-19.47 389.49,-31.89 206.85,-22.76 76.73,33.41 124.34,-67.87 13.28,-121.79 -37.07,-75.47 -309.53,-78.15 44.74,-87.14 26.43,-53.05 94.38,-123.77 58.99,-61.39 51.87,-33.77 90.08,-117.33 -95.87,-64.54 -53.77,-94.83 -162.33,-15.42 -59.71,43.67 -66.94,87.6 -144.52,132.96l0.17 -311.71 -123.94 5.37c-66.09,148.31 45.66,389.57 -69.64,523.25l-289.48 298.46 0 0.02z"/>
    <path class="fil2" d="M13828.04 12481.37c-91.53,-41.6 -56.67,-20.42 -130.93,-92.91 -39.91,-38.96 -67.64,-72.48 -105.29,-107.62l-86.42 65.49c74.11,135.87 201.52,192.45 279.25,298.76 84.54,115.59 33.17,376.76 48.87,549.48l125.54 8.69c86.03,-599.32 -214.79,-257.27 336.51,-825.54l-99.22 -110.65 -219.37 218.1c-11.69,-97.79 10.62,-204.23 -43,-282.87 -121.13,8.72 -110.08,-61.77 -105.94,279.08l0 -0.01z"/>
    <path class="fil2" d="M14116.37 13334.81l-7.04 146.42c630.35,-6.44 443.74,-51.94 822.65,318.85l89.76 -75.95c-68.76,-109.57 -148.78,-123.17 -195.13,-246.51l276.71 0.05 -3.61 -126.22 -268.69 -18.13c83.99,-120.72 140.61,-121.93 191.84,-238.43l-66.39 -80.64c-128.35,54.32 -183.54,180.43 -293.6,268.08 -114.08,90.85 -306.69,52.76 -546.5,52.48z"/>
   </g>
   <g>
    <path class="fil2" d="M9947.69 16087.59c-116.26,-61.81 -117.4,-135.32 -230.25,-173.24 -42.65,49.33 -4.01,13.48 -59.85,57.39 23.09,132.69 57.83,90.39 167.65,228.73 -107.68,10.87 -226.67,-8.26 -305.43,27.91l37.52 106.21c205.33,58.47 341.27,-50.97 475,63.7 62,53.17 249.33,246.36 304.07,326.51 -169.62,-0.33 -433.8,42.77 -550.33,-51.04 -106.39,-85.63 -171.08,-223.84 -296.74,-268.54l-78.62 76.93c65.72,122.85 116.27,96.64 196.45,243.26l-270.35 2.58 -3.32 135.57 270.93 8.47c-66.31,115.63 -139.51,130.85 -195.32,244.84l72.53 80.03c134.22,-60.96 188.3,-185.73 302.14,-276.08 141.99,-112.71 391.73,2.75 525.58,-72.75 41.15,-75.01 2.18,-51.03 33.24,-128.23 27.21,-67.6 51.45,-72.38 86.05,-120.76 -388.89,-478.3 -312.27,-61.32 -340.41,-824.12 -189.56,-1.16 -137.33,-29.29 -140.54,312.63z"/>
    <path class="fil2" d="M10146.17 17819.4l90.53 105.97 224.89 -209.5c17.93,105.72 -17.23,204.54 49.12,285.71l85.66 -4.77c32.4,-76.78 19.03,-176.1 18.3,-275.03 97.26,69.33 186.45,173.58 270.41,193.79l47.5 -63.51c-57.23,-131.31 -214.58,-206.51 -281.3,-310.89 -87.9,-137.55 9.28,-391.97 -55.03,-536.18l-122.7 -6c-23.67,746.91 21.41,395.11 -327.39,820.41l0.01 0z"/>
    <path class="fil2" d="M9514.76 17283.47l5.95 85.68 301.05 17.95c-67.35,90.41 -151.84,131.66 -175,223.72l61.74 76.93c122.63,-58.96 121.05,-119.41 239.85,-185.54l3.06 310.15 129.75 3.5c25.79,-189.59 -31.54,-423.68 60.22,-535.77 92.31,-112.77 222.73,-172.69 293.32,-314.25 -90.74,-58.16 -85.37,-85.4 -194.64,10.78 -411.28,362 -77.18,234.55 -581.55,263.99l-143.76 42.86 0.01 0z"/>
    <path class="fil2" d="M10635.55 16993.03c80.14,116.94 183.68,184.13 280.47,289.27 114.66,124.56 52.1,326.49 72.08,527.96l136.37 0.25 2.26 -292.57c124.54,74.57 112.05,111.87 216.03,168.57l80.32 -66.74c-31.1,-132.71 -76.57,-64.3 -170.78,-233.8l298.7 -3.77 5.16 -116.89c-170.14,-59.71 -392.77,24.43 -509.51,-56.33 -72.68,-50.28 -223.27,-225.53 -302.68,-300.75l-108.42 84.79 0 0.01z"/>
    <path class="fil2" d="M10641.41 16599.09l96.42 92.33c69.11,-73.19 245.43,-267.45 304.57,-306.24 114.77,-75.26 276.65,-19.49 389.49,-31.9 206.85,-22.76 76.72,33.41 124.34,-67.87 13.28,-121.79 -37.08,-75.47 -309.53,-78.15 44.74,-87.14 26.43,-53.05 94.37,-123.77 59,-61.39 51.88,-33.77 90.08,-117.33 -95.87,-64.54 -53.76,-94.83 -162.32,-15.42 -59.71,43.67 -66.94,87.6 -144.52,132.96l0.17 -311.71 -123.94 5.37c-66.1,148.31 45.66,389.57 -69.64,523.25l-289.49 298.46 0 0.02z"/>
    <path class="fil2" d="M10466.93 15871.51c-91.53,-41.6 -56.68,-20.41 -130.93,-92.9 -39.92,-38.97 -67.65,-72.49 -105.3,-107.62l-86.42 65.48c74.11,135.87 201.53,192.45 279.26,298.76 84.54,115.59 33.16,376.76 48.86,549.48l125.54 8.69c86.04,-599.32 -214.78,-257.27 336.52,-825.54l-99.22 -110.65 -219.37 218.1c-11.7,-97.79 10.61,-204.23 -43,-282.87 -121.14,8.72 -110.08,-61.77 -105.94,279.08l0 -0.01z"/>
    <path class="fil2" d="M10755.26 16724.94l-7.04 146.42c630.35,-6.44 443.74,-51.94 822.65,318.85l89.75 -75.95c-68.76,-109.57 -148.78,-123.17 -195.12,-246.51l276.7 0.05 -3.6 -126.22 -268.7 -18.13c84,-120.72 140.62,-121.93 191.85,-238.43l-66.39 -80.64c-128.36,54.32 -183.54,180.43 -293.6,268.08 -114.08,90.85 -306.69,52.76 -546.5,52.48z"/>
   </g>
  </g>
  <path class="fil3 str0" d="M3258.28 176.39l13702.62 0c1701.79,0.02 3081.89,1380.12 3081.89,3081.91l0 13797.43c0,1701.78 -1380.1,3081.88 -3081.89,3081.88l-13702.62 0.02c-1701.77,-0.02 -3081.87,-1380.12 -3081.87,-3081.91l-0.02 -13797.43c0.02,-1701.78 1380.12,-3081.88 3081.91,-3081.88z"/>
 </g>
</svg>
